# Blender v3.0.0 OBJ File: 'ABC.blend'
# www.blender.org
mtllib A.mtl
o A.001
v 0.072993 0.061123 0.050000
v -0.073950 0.061123 0.050000
v 0.072993 0.061123 -0.050000
v -0.073950 0.061123 -0.050000
v 0.027758 -0.058915 0.050000
v 0.027758 -0.058915 -0.050000
v -0.002991 -0.148796 0.050000
v 0.004058 -0.126109 0.050000
v -0.002991 -0.148796 -0.050000
v 0.004058 -0.126109 -0.050000
v 0.011488 -0.103552 0.050000
v 0.011488 -0.103552 -0.050000
v 0.019471 -0.081182 0.050000
v 0.019471 -0.081182 -0.050000
v -0.026348 -0.066011 0.050000
v -0.019402 -0.086395 0.050000
v -0.026348 -0.066011 -0.050000
v -0.019402 -0.086395 -0.050000
v -0.013056 -0.106949 0.050000
v -0.013056 -0.106949 -0.050000
v -0.007719 -0.127787 0.050000
v -0.007719 -0.127787 -0.050000
v -0.032557 -0.194328 0.050000
v -0.199014 0.239110 0.050000
v -0.032557 -0.194328 -0.050000
v -0.199014 0.239110 -0.050000
v 0.029236 -0.194328 0.050000
v 0.029236 -0.194328 -0.050000
v 0.206632 0.239110 0.050000
v 0.206632 0.239110 -0.050000
v 0.141291 0.239110 0.050000
v 0.141291 0.239110 -0.050000
v 0.090733 0.107837 0.050000
v 0.090733 0.107837 -0.050000
v -0.090507 0.107837 0.050000
v -0.090507 0.107837 -0.050000
v -0.138108 0.239110 0.050000
v -0.138108 0.239110 -0.050000
vt -0.000000 0.000000
vt 0.734716 0.000000
vt -0.000000 0.500000
vt 0.734716 0.500000
vt 0.000000 0.000000
vt 0.641394 0.000000
vt 0.000000 0.500000
vt 0.641394 0.500000
vt -0.474977 0.000000
vt -0.356233 0.000000
vt -0.474977 0.500000
vt -0.356233 0.500000
vt -0.237489 0.000000
vt -0.237489 0.500000
vt -0.118744 0.000000
vt -0.118744 0.500000
vt -0.430084 0.000000
vt -0.322563 0.000000
vt -0.430084 0.500000
vt -0.322563 0.500000
vt -0.215042 0.000000
vt -0.215042 0.500000
vt -0.107521 0.000000
vt -0.107521 0.500000
vt 0.000000 0.000000
vt 0.000000 0.500000
vt 0.000000 0.000000
vt 0.678766 0.000000
vt 0.000000 0.500000
vt 0.678766 0.500000
vt 0.000000 0.000000
vt 2.321509 0.000000
vt 0.000000 0.500000
vt 2.321509 0.500000
vt -0.000000 0.000000
vt 0.308965 0.000000
vt -0.000000 0.500000
vt 0.308965 0.500000
vt -0.000000 0.000000
vt 2.341675 0.000000
vt -0.000000 0.500000
vt 2.341675 0.500000
vt 0.000000 0.000000
vt 0.326705 0.000000
vt 0.000000 0.500000
vt 0.326705 0.500000
vt 0.000000 0.000000
vt 0.703362 0.000000
vt 0.000000 0.500000
vt 0.703362 0.500000
vt 0.000000 0.000000
vt 0.906198 0.000000
vt 0.000000 0.500000
vt 0.906198 0.500000
vt 0.000000 0.000000
vt 0.698185 0.000000
vt 0.000000 0.500000
vt 0.698185 0.500000
vt 0.000000 0.000000
vt 0.304530 0.000000
vt 0.000000 0.500000
vt 0.304530 0.500000
vt -0.709584 -1.083595
vt -0.471578 -0.427229
vt -1.014114 -1.083595
vt -0.388793 -0.193657
vt -0.181831 1.083595
vt -0.150787 0.442012
vt -0.116055 0.543933
vt 0.345922 -0.193657
vt 0.434620 -0.427229
vt 1.014114 -1.083595
vt 0.687410 -1.083595
vt 0.127134 1.083595
vt 0.119742 0.406533
vt 0.078311 0.517867
vt 0.038394 0.629714
vt 0.001245 0.742502
vt -0.034001 0.855936
vt -0.057640 0.750889
vt -0.084326 0.646700
vt 0.709584 -1.083595
vt 1.014114 -1.083595
vt 0.471578 -0.427229
vt 0.388793 -0.193657
vt -0.345922 -0.193657
vt 0.181831 1.083595
vt 0.150787 0.442012
vt 0.116055 0.543933
vt 0.084326 0.646700
vt 0.057640 0.750889
vt 0.034001 0.855936
vt -0.127134 1.083595
vt -0.001245 0.742502
vt -0.038394 0.629714
vt -0.078311 0.517867
vt -0.119742 0.406533
vt -1.014114 -1.083595
vt -0.434620 -0.427229
vt -0.687410 -1.083595
vn 0.0000 -1.0000 0.0000
vn -0.9361 0.3518 0.0000
vn -0.9358 0.3526 0.0000
vn -0.9359 0.3523 -0.0000
vn -0.9558 0.2940 -0.0000
vn -0.9533 0.3021 0.0000
vn -0.9455 0.3255 0.0000
vn -0.9388 0.3446 0.0000
vn 0.9450 0.3271 -0.0000
vn 0.9496 0.3134 0.0000
vn 0.9623 0.2720 0.0000
vn 0.9624 0.2716 0.0000
vn 0.9734 0.2291 0.0000
vn 0.9767 0.2148 -0.0000
vn 0.9365 0.3506 0.0000
vn -0.9335 -0.3585 0.0000
vn 0.9255 -0.3788 0.0000
vn 0.0000 1.0000 0.0000
vn -0.9332 0.3594 0.0000
vn 0.9401 0.3409 0.0000
vn 0.0000 0.0000 -1.0000
vn 0.0000 0.0000 1.0000
usemtl Aluminum_-_Anodized_Glossy_(Red).001
s 1
f 1/1/1 2/2/1 3/3/1
f 3/3/1 2/2/1 4/4/1
f 5/5/2 1/6/3 6/7/4
f 6/7/4 1/6/3 3/8/3
f 7/9/5 8/10/6 9/11/5
f 9/11/5 8/10/6 10/12/6
f 10/12/6 8/10/6 11/13/7
f 10/12/6 11/13/7 12/14/7
f 12/14/7 11/13/7 13/15/8
f 12/14/7 13/15/8 14/16/8
f 14/16/8 13/15/8 5/5/2
f 14/16/8 5/5/2 6/7/4
f 15/17/9 16/18/10 17/19/9
f 17/19/9 16/18/10 18/20/10
f 18/20/10 16/18/10 19/21/11
f 18/20/10 19/21/11 20/22/12
f 20/22/12 19/21/11 21/23/13
f 20/22/12 21/23/13 22/24/13
f 22/24/13 21/23/13 7/25/14
f 22/24/13 7/25/14 9/26/14
f 2/27/15 15/28/15 4/29/15
f 4/29/15 15/28/15 17/30/15
f 23/31/16 24/32/16 25/33/16
f 25/33/16 24/32/16 26/34/16
f 27/35/1 23/36/1 28/37/1
f 28/37/1 23/36/1 25/38/1
f 29/39/17 27/40/17 30/41/17
f 30/41/17 27/40/17 28/42/17
f 31/43/18 29/44/18 32/45/18
f 32/45/18 29/44/18 30/46/18
f 33/47/19 31/48/19 34/49/19
f 34/49/19 31/48/19 32/50/19
f 35/51/18 33/52/18 36/53/18
f 36/53/18 33/52/18 34/54/18
f 37/55/20 35/56/20 38/57/20
f 38/57/20 35/56/20 36/58/20
f 24/59/18 37/60/18 26/61/18
f 26/61/18 37/60/18 38/62/18
usemtl Bronze_-_Polished.001
f 38/63/21 36/64/21 26/65/21
f 26/65/21 36/64/21 4/66/21
f 26/65/21 4/66/21 25/67/21
f 25/67/21 4/66/21 17/68/21
f 25/67/21 17/68/21 18/69/21
f 4/66/21 36/64/21 3/70/21
f 3/70/21 36/64/21 34/71/21
f 3/70/21 34/71/21 30/72/21
f 30/72/21 34/71/21 32/73/21
f 30/72/21 28/74/21 3/70/21
f 3/70/21 28/74/21 6/75/21
f 6/75/21 28/74/21 14/76/21
f 14/76/21 28/74/21 12/77/21
f 12/77/21 28/74/21 10/78/21
f 10/78/21 28/74/21 9/79/21
f 9/79/21 28/74/21 25/67/21
f 9/79/21 25/67/21 22/80/21
f 22/80/21 25/67/21 20/81/21
f 20/81/21 25/67/21 18/69/21
f 37/82/22 24/83/22 35/84/22
f 35/84/22 24/83/22 2/85/22
f 35/84/22 2/85/22 1/86/22
f 24/83/22 23/87/22 2/85/22
f 2/85/22 23/87/22 15/88/22
f 15/88/22 23/87/22 16/89/22
f 16/89/22 23/87/22 19/90/22
f 19/90/22 23/87/22 21/91/22
f 21/91/22 23/87/22 7/92/22
f 7/92/22 23/87/22 27/93/22
f 7/92/22 27/93/22 8/94/22
f 8/94/22 27/93/22 11/95/22
f 11/95/22 27/93/22 13/96/22
f 13/96/22 27/93/22 5/97/22
f 5/97/22 27/93/22 1/86/22
f 1/86/22 27/93/22 29/98/22
f 1/86/22 29/98/22 33/99/22
f 33/99/22 29/98/22 31/100/22
f 33/99/22 35/84/22 1/86/22
