# Blender v3.0.0 OBJ File: 'ABC.blend'
# www.blender.org
mtllib D.mtl
o D
v -0.100027 0.152126 0.050000
v -0.192569 0.152126 0.050000
v -0.100027 0.152126 -0.050000
v -0.192569 0.152126 -0.050000
v -0.032764 0.144143 0.050000
v -0.049347 0.147948 0.050000
v -0.032764 0.144143 -0.050000
v -0.049347 0.147948 -0.050000
v -0.066071 0.150663 0.050000
v -0.066071 0.150663 -0.050000
v -0.082994 0.151818 0.050000
v -0.082994 0.151818 -0.050000
v 0.006115 0.121673 0.050000
v -0.002666 0.128890 0.050000
v 0.006115 0.121673 -0.050000
v -0.002666 0.128890 -0.050000
v -0.011982 0.135195 0.050000
v -0.011982 0.135195 -0.050000
v -0.022135 0.140075 0.050000
v -0.022135 0.140075 -0.050000
v 0.037899 0.066828 0.050000
v 0.032122 0.081817 0.050000
v 0.037899 0.066828 -0.050000
v 0.032122 0.081817 -0.050000
v 0.025211 0.096137 0.050000
v 0.025211 0.096137 -0.050000
v 0.016302 0.109282 0.050000
v 0.016302 0.109282 -0.050000
v 0.049281 -0.016696 0.050000
v 0.048656 0.004501 0.050000
v 0.049281 -0.016696 -0.050000
v 0.048656 0.004501 -0.050000
v 0.046881 0.025535 0.050000
v 0.046881 0.025535 -0.050000
v 0.043059 0.046277 0.050000
v 0.043059 0.046277 -0.050000
v 0.026959 -0.121212 0.050000
v 0.037519 -0.096231 0.050000
v 0.026959 -0.121212 -0.050000
v 0.037519 -0.096231 -0.050000
v 0.045097 -0.070563 0.050000
v 0.045097 -0.070563 -0.050000
v 0.048365 -0.043900 0.050000
v 0.048365 -0.043900 -0.050000
v -0.027295 -0.170144 0.050000
v -0.010907 -0.161105 0.050000
v -0.027295 -0.170144 -0.050000
v -0.010907 -0.161105 -0.050000
v 0.003868 -0.150244 0.050000
v 0.003868 -0.150244 -0.050000
v 0.016129 -0.136537 0.050000
v 0.016129 -0.136537 -0.050000
v -0.101505 -0.179013 0.050000
v -0.082679 -0.178823 0.050000
v -0.101505 -0.179013 -0.050000
v -0.082679 -0.178823 -0.050000
v -0.063987 -0.177644 0.050000
v -0.063987 -0.177644 -0.050000
v -0.045547 -0.174594 0.050000
v -0.045547 -0.174594 -0.050000
v -0.192569 -0.179013 0.050000
v -0.192569 -0.179013 -0.050000
v -0.249927 -0.230163 0.050000
v -0.249927 0.203275 0.050000
v -0.249927 -0.230163 -0.050000
v -0.249927 0.203275 -0.050000
v -0.100618 -0.230163 0.050000
v -0.100618 -0.230163 -0.050000
v -0.023451 -0.223954 0.050000
v -0.042612 -0.226982 0.050000
v -0.023451 -0.223954 -0.050000
v -0.042612 -0.226982 -0.050000
v -0.061853 -0.229104 0.050000
v -0.061853 -0.229104 -0.050000
v -0.081206 -0.229970 0.050000
v -0.081206 -0.229970 -0.050000
v 0.040116 -0.192909 0.050000
v 0.025547 -0.203357 0.050000
v 0.040116 -0.192909 -0.050000
v 0.025547 -0.203357 -0.050000
v 0.010242 -0.212310 0.050000
v 0.010242 -0.212310 -0.050000
v -0.006255 -0.218841 0.050000
v -0.006255 -0.218841 -0.050000
v 0.091413 -0.118847 0.050000
v 0.081873 -0.139649 0.050000
v 0.091413 -0.118847 -0.050000
v 0.081873 -0.139649 -0.050000
v 0.070565 -0.159220 0.050000
v 0.070565 -0.159220 -0.050000
v 0.056258 -0.176703 0.050000
v 0.056258 -0.176703 -0.050000
v 0.108413 -0.015809 0.050000
v 0.107326 -0.042104 0.050000
v 0.108413 -0.015809 -0.050000
v 0.107326 -0.042104 -0.050000
v 0.104569 -0.068116 0.050000
v 0.104569 -0.068116 -0.050000
v 0.098908 -0.093637 0.050000
v 0.098908 -0.093637 -0.050000
v 0.096883 0.071706 0.050000
v 0.102001 0.050131 0.050000
v 0.096883 0.071706 -0.050000
v 0.102001 0.050131 -0.050000
v 0.105849 0.028383 0.050000
v 0.105849 0.028383 -0.050000
v 0.107701 0.006365 0.050000
v 0.107701 0.006365 -0.050000
v 0.067317 0.134830 0.050000
v 0.076528 0.119913 0.050000
v 0.067317 0.134830 -0.050000
v 0.076528 0.119913 -0.050000
v 0.084696 0.104501 0.050000
v 0.084696 0.104501 -0.050000
v 0.091247 0.088321 0.050000
v 0.091247 0.088321 -0.050000
v 0.027846 0.174153 0.050000
v 0.038932 0.165555 0.050000
v 0.027846 0.174153 -0.050000
v 0.038932 0.165555 -0.050000
v 0.049330 0.156261 0.050000
v 0.049330 0.156261 -0.050000
v 0.058637 0.145863 0.050000
v 0.058637 0.145863 -0.050000
v -0.023894 0.195884 0.050000
v -0.010305 0.191990 0.050000
v -0.023894 0.195884 -0.050000
v -0.010305 0.191990 -0.050000
v 0.002939 0.187285 0.050000
v 0.002939 0.187285 -0.050000
v 0.015583 0.181166 0.050000
v 0.015583 0.181166 -0.050000
v -0.093522 0.203275 0.050000
v -0.075962 0.202828 0.050000
v -0.093522 0.203275 -0.050000
v -0.075962 0.202828 -0.050000
v -0.058482 0.201646 0.050000
v -0.058482 0.201646 -0.050000
v -0.041143 0.199177 0.050000
v -0.041143 0.199177 -0.050000
vt -0.000000 0.000000
vt 0.462708 0.000000
vt -0.000000 0.500000
vt 0.462708 0.500000
vt -0.338711 0.000000
vt -0.254034 0.000000
vt -0.338711 0.500000
vt -0.254034 0.500000
vt -0.169356 0.000000
vt -0.169356 0.500000
vt -0.084678 0.000000
vt -0.084678 0.500000
vt -0.224543 0.000000
vt -0.168407 0.000000
vt -0.224543 0.500000
vt -0.168407 0.500000
vt -0.112271 0.000000
vt -0.112271 0.500000
vt -0.056136 0.000000
vt -0.056136 0.500000
vt 0.000000 0.000000
vt 0.000000 0.500000
vt -0.316965 0.000000
vt -0.237724 0.000000
vt -0.316965 0.500000
vt -0.237724 0.500000
vt -0.158482 0.000000
vt -0.158482 0.500000
vt -0.079241 0.000000
vt -0.079241 0.500000
vt 0.000000 0.000000
vt 0.000000 0.500000
vt -0.421500 0.000000
vt -0.316125 0.000000
vt -0.421500 0.500000
vt -0.316125 0.500000
vt -0.210750 0.000000
vt -0.210750 0.500000
vt -0.105375 0.000000
vt -0.105375 0.500000
vt 0.000000 0.000000
vt 0.000000 0.500000
vt -0.534533 0.000000
vt -0.400900 0.000000
vt -0.534533 0.500000
vt -0.400900 0.500000
vt -0.267267 0.000000
vt -0.267267 0.500000
vt -0.133633 0.000000
vt -0.133633 0.500000
vt 0.000000 0.000000
vt 0.000000 0.500000
vt -0.365350 0.000000
vt -0.274013 0.000000
vt -0.365350 0.500000
vt -0.274013 0.500000
vt -0.182675 0.000000
vt -0.182675 0.500000
vt -0.091338 0.000000
vt -0.091338 0.500000
vt 0.000000 0.000000
vt 0.000000 0.500000
vt -0.373784 0.000000
vt -0.280338 0.000000
vt -0.373784 0.500000
vt -0.280338 0.500000
vt -0.186892 0.000000
vt -0.186892 0.500000
vt -0.093446 0.000000
vt -0.093446 0.500000
vt 0.000000 0.000000
vt 0.000000 0.500000
vt 0.000000 0.000000
vt 0.455317 0.000000
vt 0.000000 0.500000
vt 0.455317 0.500000
vt -0.000000 0.000000
vt 1.655697 0.000000
vt -0.000000 0.500000
vt 1.655697 0.500000
vt 0.000000 0.000000
vt 2.167189 0.000000
vt 0.000000 0.500000
vt 2.167189 0.500000
vt -0.000000 0.000000
vt 0.746542 0.000000
vt -0.000000 0.500000
vt 0.746542 0.500000
vt -0.387112 0.000000
vt -0.290334 0.000000
vt -0.387112 0.500000
vt -0.290334 0.500000
vt -0.193556 0.000000
vt -0.193556 0.500000
vt -0.096778 0.000000
vt -0.096778 0.500000
vt -0.353718 0.000000
vt -0.265289 0.000000
vt -0.353718 0.500000
vt -0.265289 0.500000
vt -0.176859 0.000000
vt -0.176859 0.500000
vt -0.088430 0.000000
vt -0.088430 0.500000
vt 0.000000 0.000000
vt 0.000000 0.500000
vt -0.450467 0.000000
vt -0.337850 0.000000
vt -0.450467 0.500000
vt -0.337850 0.500000
vt -0.225234 0.000000
vt -0.225234 0.500000
vt -0.112617 0.000000
vt -0.112617 0.500000
vt 0.000000 0.000000
vt 0.000000 0.500000
vt -0.522166 0.000000
vt -0.391624 0.000000
vt -0.522166 0.500000
vt -0.391624 0.500000
vt -0.261083 0.000000
vt -0.261083 0.500000
vt -0.130541 0.000000
vt -0.130541 0.500000
vt 0.000000 0.000000
vt 0.000000 0.500000
vt -0.441369 0.000000
vt -0.331026 0.000000
vt -0.441369 0.500000
vt -0.331026 0.500000
vt -0.220684 0.000000
vt -0.220684 0.500000
vt -0.110342 0.000000
vt -0.110342 0.500000
vt 0.000000 0.000000
vt 0.000000 0.500000
vt -0.348536 0.000000
vt -0.261402 0.000000
vt -0.348536 0.500000
vt -0.261402 0.500000
vt -0.174268 0.000000
vt -0.174268 0.500000
vt -0.087134 0.000000
vt -0.087134 0.500000
vt 0.000000 0.000000
vt 0.000000 0.500000
vt -0.278584 0.000000
vt -0.208938 0.000000
vt -0.278584 0.500000
vt -0.208938 0.500000
vt -0.139292 0.000000
vt -0.139292 0.500000
vt -0.069646 0.000000
vt -0.069646 0.500000
vt 0.000000 0.000000
vt 0.000000 0.500000
vt -0.280601 0.000000
vt -0.210451 0.000000
vt -0.280601 0.500000
vt -0.210451 0.500000
vt -0.140300 0.000000
vt -0.140300 0.500000
vt -0.070150 0.000000
vt -0.070150 0.500000
vt 0.000000 0.000000
vt 0.000000 0.500000
vt -0.350102 0.000000
vt -0.262576 0.000000
vt -0.350102 0.500000
vt -0.262576 0.500000
vt -0.175051 0.000000
vt -0.175051 0.500000
vt -0.087525 0.000000
vt -0.087525 0.500000
vt 0.000000 0.000000
vt 0.000000 0.500000
vt 0.000000 0.000000
vt 0.782021 0.000000
vt 0.000000 0.500000
vt 0.782021 0.500000
vt -0.895850 1.083595
vt -0.895850 -1.083595
vt -0.609060 -0.827848
vt -0.113829 -1.083595
vt -0.146352 -0.827848
vt -0.061189 -0.826310
vt -0.026027 -1.081356
vt 0.023430 -0.820536
vt 0.061374 -1.075450
vt 0.107046 -0.806960
vt 0.148068 -1.063104
vt 0.189962 -0.787934
vt 0.234311 -1.046637
vt 0.302258 -1.027170
vt 0.243109 -0.767592
vt 0.368479 -1.003644
vt 0.293874 -0.743192
vt 0.431697 -0.973049
vt 0.340454 -0.711667
vt 0.493013 -0.937982
vt 0.384358 -0.675584
vt 0.548442 -0.894991
vt 0.600433 -0.848522
vt 0.435294 -0.613626
vt 0.646969 -0.796533
vt 0.479836 -0.547904
vt 0.690366 -0.741368
vt 0.736422 -0.666785
vt 0.514396 -0.476304
vt 0.777263 -0.589725
vt 0.543275 -0.401359
vt 0.810019 -0.508825
vt 0.838197 -0.425751
vt 0.569078 -0.298602
vt 0.863787 -0.317874
vt 0.588188 -0.194893
vt 0.883026 -0.209135
vt 0.597063 -0.089725
vt 0.892288 -0.099042
vt 0.600190 0.016261
vt 0.895850 0.011826
vt 0.890413 0.143302
vt 0.595607 0.152283
vt 0.876629 0.273363
vt 0.579270 0.285595
vt 0.848323 0.400965
vt 0.541375 0.413936
vt 0.810848 0.527014
vt 0.763148 0.631025
vt 0.488578 0.538841
vt 0.706608 0.728882
vt 0.635072 0.816298
vt 0.434427 0.615466
vt 0.554363 0.897329
vt 0.373124 0.684001
vt 0.481516 0.949565
vt 0.299247 0.738309
vt 0.404993 0.994333
vt 0.322506 1.026987
vt 0.217310 0.783499
vt 0.236528 1.052550
vt 0.126051 0.805749
vt 0.140722 1.067689
vt 0.033848 0.821000
vt 0.044516 1.078303
vt -0.059615 0.826896
vt -0.052247 1.082632
vt -0.149308 1.083595
vt -0.609060 0.827849
vt -0.153743 0.827849
vt 0.895850 -1.083595
vt 0.609060 -0.827848
vt 0.113829 -1.083595
vt 0.146352 -0.827848
vt 0.061189 -0.826310
vt 0.895850 1.083595
vt 0.609060 0.827849
vt 0.149308 1.083595
vt 0.153743 0.827849
vt 0.059615 0.826896
vt 0.052247 1.082632
vt -0.044516 1.078303
vt -0.033848 0.821000
vt -0.140722 1.067689
vt -0.126051 0.805749
vt -0.236528 1.052550
vt -0.217310 0.783499
vt -0.322506 1.026987
vt -0.299247 0.738309
vt -0.404993 0.994333
vt -0.481516 0.949565
vt -0.373124 0.684001
vt -0.554363 0.897329
vt -0.434427 0.615466
vt -0.635072 0.816298
vt -0.488578 0.538841
vt -0.706608 0.728882
vt -0.763148 0.631025
vt -0.541375 0.413936
vt -0.810848 0.527014
vt -0.848323 0.400965
vt -0.579270 0.285595
vt -0.876629 0.273363
vt -0.595607 0.152283
vt -0.890413 0.143302
vt -0.600190 0.016261
vt -0.895850 0.011826
vt -0.892288 -0.099042
vt -0.597063 -0.089725
vt -0.883026 -0.209135
vt -0.588188 -0.194893
vt -0.863787 -0.317874
vt -0.569078 -0.298602
vt -0.838197 -0.425751
vt -0.543275 -0.401359
vt -0.810019 -0.508825
vt -0.777263 -0.589725
vt -0.514396 -0.476304
vt -0.736422 -0.666785
vt -0.479836 -0.547904
vt -0.690366 -0.741368
vt -0.646969 -0.796533
vt -0.435294 -0.613626
vt -0.600433 -0.848522
vt -0.384358 -0.675584
vt -0.548442 -0.894991
vt -0.493013 -0.937982
vt -0.340454 -0.711667
vt -0.431697 -0.973049
vt -0.293874 -0.743192
vt -0.368479 -1.003644
vt -0.243109 -0.767592
vt -0.302258 -1.027170
vt -0.189962 -0.787934
vt -0.234311 -1.046637
vt -0.148068 -1.063104
vt -0.107046 -0.806960
vt -0.061374 -1.075450
vt -0.023430 -0.820536
vt 0.026027 -1.081356
vn -0.0038 -1.0000 0.0000
vn 0.0000 -1.0000 0.0000
vn -0.0016 -1.0000 0.0000
vn -0.2341 -0.9722 0.0000
vn -0.2026 -0.9793 0.0000
vn -0.1099 -0.9939 -0.0000
vn -0.0347 -0.9994 0.0000
vn -0.6467 -0.7628 0.0000
vn -0.6109 -0.7917 0.0000
vn -0.4949 -0.8689 -0.0000
vn -0.3828 -0.9238 0.0000
vn -0.3448 -0.9387 0.0000
vn -0.9379 -0.3470 0.0000
vn -0.9230 -0.3847 0.0000
vn -0.8684 -0.4959 0.0000
vn -0.7915 -0.6111 0.0000
vn -0.7627 -0.6467 0.0000
vn -0.9998 -0.0204 0.0000
vn -0.9989 -0.0477 0.0000
vn -0.9998 -0.0205 -0.0000
vn -0.9916 -0.1297 0.0000
vn -0.9915 -0.1297 0.0000
vn -0.9748 -0.2229 0.0000
vn -0.9673 -0.2538 0.0000
vn -0.9137 0.4064 0.0000
vn -0.9350 0.3546 0.0000
vn -0.9807 0.1956 0.0000
vn -0.9980 0.0628 0.0000
vn -0.9998 0.0192 0.0000
vn -0.4644 0.8856 0.0000
vn -0.5199 0.8542 0.0000
vn -0.6765 0.7364 -0.0000
vn -0.7944 0.6074 0.0000
vn -0.8272 0.5618 0.0000
vn -0.0004 1.0000 0.0000
vn -0.0277 0.9996 0.0000
vn -0.0008 1.0000 -0.0000
vn -0.1072 0.9942 0.0000
vn -0.2122 0.9772 -0.0000
vn -0.2491 0.9685 0.0000
vn 0.0000 1.0000 0.0000
vn 1.0000 0.0000 0.0000
vn -1.0000 0.0000 0.0000
vn 0.0020 -1.0000 0.0000
vn 0.0009 -1.0000 -0.0000
vn 0.1638 -0.9865 -0.0000
vn 0.1405 -0.9901 -0.0000
vn 0.0737 -0.9973 0.0000
vn 0.0215 -0.9998 0.0000
vn 0.5951 -0.8037 -0.0000
vn 0.5575 -0.8302 0.0000
vn 0.5576 -0.8301 0.0000
vn 0.4361 -0.8999 0.0000
vn 0.3127 -0.9498 0.0000
vn 0.2711 -0.9626 -0.0000
vn 0.2711 -0.9625 0.0000
vn 0.9153 -0.4028 -0.0000
vn 0.8956 -0.4449 -0.0000
vn 0.8234 -0.5675 -0.0000
vn 0.7309 -0.6825 0.0000
vn 0.6972 -0.7169 -0.0000
vn 0.9995 -0.0307 -0.0000
vn 0.9980 -0.0626 -0.0000
vn 0.9873 -0.1589 -0.0000
vn 0.9650 -0.2624 0.0000
vn 0.9551 -0.2962 -0.0000
vn 0.9707 0.2401 -0.0000
vn 0.9773 0.2121 0.0000
vn 0.9919 0.1270 0.0000
vn 0.9988 0.0493 0.0000
vn 0.9997 0.0235 -0.0000
vn 0.8451 0.5346 -0.0000
vn 0.8621 0.5067 -0.0000
vn 0.9076 0.4198 0.0000
vn 0.9076 0.4197 -0.0000
vn 0.9407 0.3393 0.0000
vn 0.9500 0.3122 -0.0000
vn 0.9500 0.3121 0.0000
vn 0.6037 0.7972 -0.0000
vn 0.6310 0.7758 0.0000
vn 0.7084 0.7058 0.0000
vn 0.7727 0.6347 0.0000
vn 0.7924 0.6100 -0.0000
vn 0.2655 0.9641 -0.0000
vn 0.2953 0.9554 -0.0000
vn 0.3836 0.9235 0.0000
vn 0.4765 0.8792 0.0000
vn 0.5063 0.8624 -0.0000
vn 0.0185 0.9998 -0.0000
vn 0.0394 0.9992 0.0000
vn 0.0395 0.9992 0.0000
vn 0.1024 0.9947 -0.0000
vn 0.1721 0.9851 0.0000
vn 0.1952 0.9808 -0.0000
vn 0.0000 0.0000 -1.0000
vn 0.0000 0.0000 1.0000
usemtl Aluminum_-_Anodized_Glossy_(Red).004
s 1
f 1/1/1 2/2/2 3/3/3
f 3/3/3 2/2/2 4/4/2
f 5/5/4 6/6/5 7/7/4
f 7/7/4 6/6/5 8/8/5
f 8/8/5 6/6/5 9/9/6
f 8/8/5 9/9/6 10/10/6
f 10/10/6 9/9/6 11/11/7
f 10/10/6 11/11/7 12/12/7
f 12/12/7 11/11/7 1/1/1
f 12/12/7 1/1/1 3/3/3
f 13/13/8 14/14/9 15/15/8
f 15/15/8 14/14/9 16/16/9
f 16/16/9 14/14/9 17/17/10
f 16/16/9 17/17/10 18/18/10
f 18/18/10 17/17/10 19/19/11
f 18/18/10 19/19/11 20/20/11
f 20/20/11 19/19/11 5/21/12
f 20/20/11 5/21/12 7/22/12
f 21/23/13 22/24/14 23/25/13
f 23/25/13 22/24/14 24/26/14
f 24/26/14 22/24/14 25/27/15
f 24/26/14 25/27/15 26/28/15
f 26/28/15 25/27/15 27/29/16
f 26/28/15 27/29/16 28/30/16
f 28/30/16 27/29/16 13/31/17
f 28/30/16 13/31/17 15/32/17
f 29/33/18 30/34/19 31/35/20
f 31/35/20 30/34/19 32/36/19
f 32/36/19 30/34/19 33/37/21
f 32/36/19 33/37/21 34/38/22
f 34/38/22 33/37/21 35/39/23
f 34/38/22 35/39/23 36/40/23
f 36/40/23 35/39/23 21/41/24
f 36/40/23 21/41/24 23/42/24
f 37/43/25 38/44/26 39/45/25
f 39/45/25 38/44/26 40/46/26
f 40/46/26 38/44/26 41/47/27
f 40/46/26 41/47/27 42/48/27
f 42/48/27 41/47/27 43/49/28
f 42/48/27 43/49/28 44/50/28
f 44/50/28 43/49/28 29/51/29
f 44/50/28 29/51/29 31/52/29
f 45/53/30 46/54/31 47/55/30
f 47/55/30 46/54/31 48/56/31
f 48/56/31 46/54/31 49/57/32
f 48/56/31 49/57/32 50/58/32
f 50/58/32 49/57/32 51/59/33
f 50/58/32 51/59/33 52/60/33
f 52/60/33 51/59/33 37/61/34
f 52/60/33 37/61/34 39/62/34
f 53/63/35 54/64/36 55/65/37
f 55/65/37 54/64/36 56/66/36
f 56/66/36 54/64/36 57/67/38
f 56/66/36 57/67/38 58/68/38
f 58/68/38 57/67/38 59/69/39
f 58/68/38 59/69/39 60/70/39
f 60/70/39 59/69/39 45/71/40
f 60/70/39 45/71/40 47/72/40
f 61/73/41 53/74/35 62/75/41
f 62/75/41 53/74/35 55/76/37
f 2/77/42 61/78/42 4/79/42
f 4/79/42 61/78/42 62/80/42
f 63/81/43 64/82/43 65/83/43
f 65/83/43 64/82/43 66/84/43
f 67/85/44 63/86/2 68/87/45
f 68/87/45 63/86/2 65/88/2
f 69/89/46 70/90/47 71/91/46
f 71/91/46 70/90/47 72/92/47
f 72/92/47 70/90/47 73/93/48
f 72/92/47 73/93/48 74/94/48
f 74/94/48 73/93/48 75/95/49
f 74/94/48 75/95/49 76/96/49
f 76/96/49 75/95/49 67/85/44
f 76/96/49 67/85/44 68/87/45
f 77/97/50 78/98/51 79/99/50
f 79/99/50 78/98/51 80/100/52
f 80/100/52 78/98/51 81/101/53
f 80/100/52 81/101/53 82/102/53
f 82/102/53 81/101/53 83/103/54
f 82/102/53 83/103/54 84/104/54
f 84/104/54 83/103/54 69/105/55
f 84/104/54 69/105/55 71/106/56
f 85/107/57 86/108/58 87/109/57
f 87/109/57 86/108/58 88/110/58
f 88/110/58 86/108/58 89/111/59
f 88/110/58 89/111/59 90/112/59
f 90/112/59 89/111/59 91/113/60
f 90/112/59 91/113/60 92/114/60
f 92/114/60 91/113/60 77/115/61
f 92/114/60 77/115/61 79/116/61
f 93/117/62 94/118/63 95/119/62
f 95/119/62 94/118/63 96/120/63
f 96/120/63 94/118/63 97/121/64
f 96/120/63 97/121/64 98/122/64
f 98/122/64 97/121/64 99/123/65
f 98/122/64 99/123/65 100/124/65
f 100/124/65 99/123/65 85/125/66
f 100/124/65 85/125/66 87/126/66
f 101/127/67 102/128/68 103/129/67
f 103/129/67 102/128/68 104/130/68
f 104/130/68 102/128/68 105/131/69
f 104/130/68 105/131/69 106/132/69
f 106/132/69 105/131/69 107/133/70
f 106/132/69 107/133/70 108/134/70
f 108/134/70 107/133/70 93/135/71
f 108/134/70 93/135/71 95/136/71
f 109/137/72 110/138/73 111/139/72
f 111/139/72 110/138/73 112/140/73
f 112/140/73 110/138/73 113/141/74
f 112/140/73 113/141/74 114/142/75
f 114/142/75 113/141/74 115/143/76
f 114/142/75 115/143/76 116/144/76
f 116/144/76 115/143/76 101/145/77
f 116/144/76 101/145/77 103/146/78
f 117/147/79 118/148/80 119/149/79
f 119/149/79 118/148/80 120/150/80
f 120/150/80 118/148/80 121/151/81
f 120/150/80 121/151/81 122/152/81
f 122/152/81 121/151/81 123/153/82
f 122/152/81 123/153/82 124/154/82
f 124/154/82 123/153/82 109/155/83
f 124/154/82 109/155/83 111/156/83
f 125/157/84 126/158/85 127/159/84
f 127/159/84 126/158/85 128/160/85
f 128/160/85 126/158/85 129/161/86
f 128/160/85 129/161/86 130/162/86
f 130/162/86 129/161/86 131/163/87
f 130/162/86 131/163/87 132/164/87
f 132/164/87 131/163/87 117/165/88
f 132/164/87 117/165/88 119/166/88
f 133/167/89 134/168/90 135/169/89
f 135/169/89 134/168/90 136/170/91
f 136/170/91 134/168/90 137/171/92
f 136/170/91 137/171/92 138/172/92
f 138/172/92 137/171/92 139/173/93
f 138/172/92 139/173/93 140/174/93
f 140/174/93 139/173/93 125/175/94
f 140/174/93 125/175/94 127/176/94
f 64/177/41 133/178/41 66/179/41
f 66/179/41 133/178/41 135/180/41
usemtl Bronze_-_Polished.004
f 65/181/95 66/182/95 4/183/95
f 4/183/95 66/182/95 135/184/95
f 4/183/95 135/184/95 3/185/95
f 3/185/95 135/184/95 12/186/95
f 12/186/95 135/184/95 136/187/95
f 12/186/95 136/187/95 10/188/95
f 10/188/95 136/187/95 138/189/95
f 10/188/95 138/189/95 8/190/95
f 8/190/95 138/189/95 140/191/95
f 8/190/95 140/191/95 7/192/95
f 7/192/95 140/191/95 127/193/95
f 7/192/95 127/193/95 128/194/95
f 7/192/95 128/194/95 20/195/95
f 20/195/95 128/194/95 130/196/95
f 20/195/95 130/196/95 18/197/95
f 18/197/95 130/196/95 132/198/95
f 18/197/95 132/198/95 16/199/95
f 16/199/95 132/198/95 119/200/95
f 16/199/95 119/200/95 15/201/95
f 15/201/95 119/200/95 120/202/95
f 15/201/95 120/202/95 122/203/95
f 15/201/95 122/203/95 28/204/95
f 28/204/95 122/203/95 124/205/95
f 28/204/95 124/205/95 26/206/95
f 26/206/95 124/205/95 111/207/95
f 26/206/95 111/207/95 112/208/95
f 26/206/95 112/208/95 24/209/95
f 24/209/95 112/208/95 114/210/95
f 24/209/95 114/210/95 23/211/95
f 23/211/95 114/210/95 116/212/95
f 23/211/95 116/212/95 103/213/95
f 23/211/95 103/213/95 36/214/95
f 36/214/95 103/213/95 104/215/95
f 36/214/95 104/215/95 34/216/95
f 34/216/95 104/215/95 106/217/95
f 34/216/95 106/217/95 32/218/95
f 32/218/95 106/217/95 108/219/95
f 32/218/95 108/219/95 31/220/95
f 31/220/95 108/219/95 95/221/95
f 31/220/95 95/221/95 96/222/95
f 31/220/95 96/222/95 44/223/95
f 44/223/95 96/222/95 98/224/95
f 44/223/95 98/224/95 42/225/95
f 42/225/95 98/224/95 100/226/95
f 42/225/95 100/226/95 40/227/95
f 40/227/95 100/226/95 87/228/95
f 40/227/95 87/228/95 88/229/95
f 40/227/95 88/229/95 39/230/95
f 39/230/95 88/229/95 90/231/95
f 39/230/95 90/231/95 92/232/95
f 39/230/95 92/232/95 52/233/95
f 52/233/95 92/232/95 79/234/95
f 52/233/95 79/234/95 50/235/95
f 50/235/95 79/234/95 80/236/95
f 50/235/95 80/236/95 48/237/95
f 48/237/95 80/236/95 82/238/95
f 48/237/95 82/238/95 84/239/95
f 48/237/95 84/239/95 47/240/95
f 47/240/95 84/239/95 71/241/95
f 47/240/95 71/241/95 60/242/95
f 60/242/95 71/241/95 72/243/95
f 60/242/95 72/243/95 58/244/95
f 58/244/95 72/243/95 74/245/95
f 58/244/95 74/245/95 56/246/95
f 56/246/95 74/245/95 76/247/95
f 56/246/95 76/247/95 68/248/95
f 65/181/95 62/249/95 68/248/95
f 68/248/95 62/249/95 55/250/95
f 68/248/95 55/250/95 56/246/95
f 62/249/95 65/181/95 4/183/95
f 64/251/96 2/252/96 133/253/96
f 133/253/96 2/252/96 1/254/96
f 133/253/96 1/254/96 11/255/96
f 64/251/96 63/256/96 2/252/96
f 2/252/96 63/256/96 61/257/96
f 61/257/96 63/256/96 67/258/96
f 61/257/96 67/258/96 53/259/96
f 53/259/96 67/258/96 54/260/96
f 54/260/96 67/258/96 75/261/96
f 54/260/96 75/261/96 73/262/96
f 54/260/96 73/262/96 57/263/96
f 57/263/96 73/262/96 70/264/96
f 57/263/96 70/264/96 59/265/96
f 59/265/96 70/264/96 69/266/96
f 59/265/96 69/266/96 45/267/96
f 45/267/96 69/266/96 83/268/96
f 45/267/96 83/268/96 46/269/96
f 46/269/96 83/268/96 81/270/96
f 46/269/96 81/270/96 78/271/96
f 46/269/96 78/271/96 49/272/96
f 49/272/96 78/271/96 77/273/96
f 49/272/96 77/273/96 51/274/96
f 51/274/96 77/273/96 91/275/96
f 51/274/96 91/275/96 37/276/96
f 37/276/96 91/275/96 89/277/96
f 37/276/96 89/277/96 86/278/96
f 37/276/96 86/278/96 38/279/96
f 38/279/96 86/278/96 85/280/96
f 38/279/96 85/280/96 99/281/96
f 38/279/96 99/281/96 41/282/96
f 41/282/96 99/281/96 97/283/96
f 41/282/96 97/283/96 43/284/96
f 43/284/96 97/283/96 94/285/96
f 43/284/96 94/285/96 29/286/96
f 29/286/96 94/285/96 93/287/96
f 29/286/96 93/287/96 107/288/96
f 29/286/96 107/288/96 30/289/96
f 30/289/96 107/288/96 105/290/96
f 30/289/96 105/290/96 33/291/96
f 33/291/96 105/290/96 102/292/96
f 33/291/96 102/292/96 35/293/96
f 35/293/96 102/292/96 101/294/96
f 35/293/96 101/294/96 21/295/96
f 21/295/96 101/294/96 115/296/96
f 21/295/96 115/296/96 113/297/96
f 21/295/96 113/297/96 22/298/96
f 22/298/96 113/297/96 110/299/96
f 22/298/96 110/299/96 25/300/96
f 25/300/96 110/299/96 109/301/96
f 25/300/96 109/301/96 123/302/96
f 25/300/96 123/302/96 27/303/96
f 27/303/96 123/302/96 121/304/96
f 27/303/96 121/304/96 13/305/96
f 13/305/96 121/304/96 118/306/96
f 13/305/96 118/306/96 117/307/96
f 13/305/96 117/307/96 14/308/96
f 14/308/96 117/307/96 131/309/96
f 14/308/96 131/309/96 17/310/96
f 17/310/96 131/309/96 129/311/96
f 17/310/96 129/311/96 19/312/96
f 19/312/96 129/311/96 126/313/96
f 19/312/96 126/313/96 5/314/96
f 5/314/96 126/313/96 125/315/96
f 5/314/96 125/315/96 139/316/96
f 5/314/96 139/316/96 6/317/96
f 6/317/96 139/316/96 137/318/96
f 6/317/96 137/318/96 9/319/96
f 9/319/96 137/318/96 134/320/96
f 9/319/96 134/320/96 11/255/96
f 11/255/96 134/320/96 133/253/96
