# Blender v3.0.0 OBJ File: 'ABC.blend'
# www.blender.org
mtllib E.mtl
o E
v -0.174784 -0.214255 0.050000
v -0.174784 0.219183 0.050000
v -0.174784 -0.214255 -0.050000
v -0.174784 0.219183 -0.050000
v 0.138616 -0.214255 0.050000
v 0.138616 -0.214255 -0.050000
v 0.138616 -0.163106 0.050000
v 0.138616 -0.163106 -0.050000
v -0.117426 -0.163106 0.050000
v -0.117426 -0.163106 -0.050000
v -0.117426 -0.030354 0.050000
v -0.117426 -0.030354 -0.050000
v 0.122354 -0.030354 0.050000
v 0.122354 -0.030354 -0.050000
v 0.122354 0.020499 0.050000
v 0.122354 0.020499 -0.050000
v -0.117426 0.020499 0.050000
v -0.117426 0.020499 -0.050000
v -0.117426 0.168034 0.050000
v -0.117426 0.168034 -0.050000
v 0.148668 0.168034 0.050000
v 0.148668 0.168034 -0.050000
v 0.148668 0.219183 0.050000
v 0.148668 0.219183 -0.050000
vt 0.000000 0.000000
vt 2.167189 0.000000
vt 0.000000 0.500000
vt 2.167189 0.500000
vt -0.000000 0.000000
vt 1.566999 0.000000
vt -0.000000 0.500000
vt 1.566999 0.500000
vt -0.000000 0.000000
vt 0.255746 0.000000
vt -0.000000 0.500000
vt 0.255746 0.500000
vt 0.000000 0.000000
vt 1.280209 0.000000
vt 0.000000 0.500000
vt 1.280209 0.500000
vt -0.000000 0.000000
vt 0.663757 0.000000
vt -0.000000 0.500000
vt 0.663757 0.500000
vt -0.000000 0.000000
vt 1.198902 0.000000
vt -0.000000 0.500000
vt 1.198902 0.500000
vt -0.000000 0.000000
vt 0.254268 0.000000
vt -0.000000 0.500000
vt 0.254268 0.500000
vt 0.000000 0.000000
vt 1.198902 0.000000
vt 0.000000 0.500000
vt 1.198902 0.500000
vt -0.000000 0.000000
vt 0.737672 0.000000
vt -0.000000 0.500000
vt 0.737672 0.500000
vt -0.000000 0.000000
vt 1.330471 0.000000
vt -0.000000 0.500000
vt 1.330471 0.500000
vt -0.000000 0.000000
vt 0.255746 0.000000
vt -0.000000 0.500000
vt 0.255746 0.500000
vt 0.000000 0.000000
vt 1.617261 0.000000
vt 0.000000 0.500000
vt 1.617261 0.500000
vt 1.083595 0.808631
vt 0.827848 -0.521840
vt 1.083595 -0.808631
vt 0.090176 -0.521840
vt -1.083595 -0.808631
vt -0.164091 -0.521840
vt -0.827849 -0.521840
vt 0.827848 0.808631
vt 0.090176 0.677062
vt -0.164091 0.677062
vt -0.827849 0.758368
vt -1.083595 0.758368
vt -0.808631 -0.827848
vt -0.808631 -1.083595
vt 0.521840 -0.827848
vt 0.808631 -1.083595
vt 0.521840 -0.090176
vt 0.808631 1.083595
vt 0.521840 0.164091
vt 0.521840 0.827849
vt -0.758368 1.083595
vt -0.758368 0.827849
vt -0.677062 0.164091
vt -0.677062 -0.090176
vn -1.0000 0.0000 0.0000
vn 0.0000 -1.0000 0.0000
vn 1.0000 0.0000 0.0000
vn 0.0000 1.0000 0.0000
vn 0.0000 0.0000 -1.0000
vn 0.0000 0.0000 1.0000
usemtl Aluminum_-_Anodized_Glossy_(Red).005
s 1
f 1/1/1 2/2/1 3/3/1
f 3/3/1 2/2/1 4/4/1
f 5/5/2 1/6/2 6/7/2
f 6/7/2 1/6/2 3/8/2
f 7/9/3 5/10/3 8/11/3
f 8/11/3 5/10/3 6/12/3
f 9/13/4 7/14/4 10/15/4
f 10/15/4 7/14/4 8/16/4
f 11/17/3 9/18/3 12/19/3
f 12/19/3 9/18/3 10/20/3
f 13/21/2 11/22/2 14/23/2
f 14/23/2 11/22/2 12/24/2
f 15/25/3 13/26/3 16/27/3
f 16/27/3 13/26/3 14/28/3
f 17/29/4 15/30/4 18/31/4
f 18/31/4 15/30/4 16/32/4
f 19/33/3 17/34/3 20/35/3
f 20/35/3 17/34/3 18/36/3
f 21/37/2 19/38/2 22/39/2
f 22/39/2 19/38/2 20/40/2
f 23/41/3 21/42/3 24/43/3
f 24/43/3 21/42/3 22/44/3
f 2/45/4 23/46/4 4/47/4
f 4/47/4 23/46/4 24/48/4
usemtl Bronze_-_Polished.005
f 24/49/5 20/50/5 4/51/5
f 4/51/5 20/50/5 18/52/5
f 4/51/5 18/52/5 3/53/5
f 3/53/5 18/52/5 12/54/5
f 3/53/5 12/54/5 10/55/5
f 24/49/5 22/56/5 20/50/5
f 16/57/5 14/58/5 18/52/5
f 18/52/5 14/58/5 12/54/5
f 8/59/5 6/60/5 10/55/5
f 10/55/5 6/60/5 3/53/5
f 21/61/6 23/62/6 19/63/6
f 19/63/6 23/62/6 2/64/6
f 19/63/6 2/64/6 17/65/6
f 17/65/6 2/64/6 1/66/6
f 17/65/6 1/66/6 11/67/6
f 11/67/6 1/66/6 9/68/6
f 9/68/6 1/66/6 5/69/6
f 9/68/6 5/69/6 7/70/6
f 11/67/6 13/71/6 17/65/6
f 17/65/6 13/71/6 15/72/6
