# Blender v3.0.0 OBJ File: 'ABC.blend'
# www.blender.org
mtllib F.mtl
o F
v -0.133579 -0.181299 0.050000
v -0.133579 0.252139 0.050000
v -0.133579 -0.181299 -0.050000
v -0.133579 0.252139 -0.050000
v 0.158829 -0.181299 0.050000
v 0.158829 -0.181299 -0.050000
v 0.158829 -0.130150 0.050000
v 0.158829 -0.130150 -0.050000
v -0.076221 -0.130150 0.050000
v -0.076221 -0.130150 -0.050000
v -0.076221 0.004080 0.050000
v -0.076221 0.004080 -0.050000
v 0.127193 0.004080 0.050000
v 0.127193 0.004080 -0.050000
v 0.127193 0.055229 0.050000
v 0.127193 0.055229 -0.050000
v -0.076221 0.055229 0.050000
v -0.076221 0.055229 -0.050000
v -0.076221 0.252139 0.050000
v -0.076221 0.252139 -0.050000
vt 0.000000 0.000000
vt 2.167189 0.000000
vt 0.000000 0.500000
vt 2.167189 0.500000
vt -0.000000 0.000000
vt 1.462040 0.000000
vt -0.000000 0.500000
vt 1.462040 0.500000
vt -0.000000 0.000000
vt 0.255746 0.000000
vt -0.000000 0.500000
vt 0.255746 0.500000
vt 0.000000 0.000000
vt 1.175249 0.000000
vt 0.000000 0.500000
vt 1.175249 0.500000
vt -0.000000 0.000000
vt 0.671149 0.000000
vt -0.000000 0.500000
vt 0.671149 0.500000
vt -0.000000 0.000000
vt 1.017071 0.000000
vt -0.000000 0.500000
vt 1.017071 0.500000
vt -0.000000 0.000000
vt 0.255746 0.000000
vt -0.000000 0.500000
vt 0.255746 0.500000
vt 0.000000 0.000000
vt 1.017071 0.000000
vt 0.000000 0.500000
vt 1.017071 0.500000
vt -0.000000 0.000000
vt 0.984548 0.000000
vt -0.000000 0.500000
vt 0.984548 0.500000
vt 0.000000 0.000000
vt 0.286790 0.000000
vt 0.000000 0.500000
vt 0.286790 0.500000
vt 1.083595 -0.444229
vt 0.099046 -0.444229
vt 1.083595 -0.731020
vt -1.083595 -0.731020
vt -0.156700 -0.444229
vt -0.827849 -0.444229
vt 0.099046 0.572842
vt -0.156700 0.572842
vt -0.827849 0.731020
vt -1.083595 0.731020
vt 0.444229 -1.083595
vt 0.731020 -1.083595
vt 0.444229 -0.099046
vt 0.731020 1.083595
vt 0.444229 0.156700
vt 0.444229 0.827849
vt -0.731020 1.083595
vt -0.731020 0.827849
vt -0.572842 0.156700
vt -0.572842 -0.099046
vn -1.0000 0.0000 0.0000
vn 0.0000 -1.0000 0.0000
vn 1.0000 0.0000 0.0000
vn 0.0000 1.0000 0.0000
vn 0.0000 0.0000 -1.0000
vn 0.0000 0.0000 1.0000
usemtl Aluminum_-_Anodized_Glossy_(Red).006
s 1
f 1/1/1 2/2/1 3/3/1
f 3/3/1 2/2/1 4/4/1
f 5/5/2 1/6/2 6/7/2
f 6/7/2 1/6/2 3/8/2
f 7/9/3 5/10/3 8/11/3
f 8/11/3 5/10/3 6/12/3
f 9/13/4 7/14/4 10/15/4
f 10/15/4 7/14/4 8/16/4
f 11/17/3 9/18/3 12/19/3
f 12/19/3 9/18/3 10/20/3
f 13/21/2 11/22/2 14/23/2
f 14/23/2 11/22/2 12/24/2
f 15/25/3 13/26/3 16/27/3
f 16/27/3 13/26/3 14/28/3
f 17/29/4 15/30/4 18/31/4
f 18/31/4 15/30/4 16/32/4
f 19/33/3 17/34/3 20/35/3
f 20/35/3 17/34/3 18/36/3
f 2/37/4 19/38/4 4/39/4
f 4/39/4 19/38/4 20/40/4
usemtl Bronze_-_Polished.006
f 20/41/5 18/42/5 4/43/5
f 4/43/5 18/42/5 3/44/5
f 3/44/5 18/42/5 12/45/5
f 3/44/5 12/45/5 10/46/5
f 16/47/5 14/48/5 18/42/5
f 18/42/5 14/48/5 12/45/5
f 8/49/5 6/50/5 10/46/5
f 10/46/5 6/50/5 3/44/5
f 19/51/6 2/52/6 17/53/6
f 17/53/6 2/52/6 1/54/6
f 17/53/6 1/54/6 11/55/6
f 11/55/6 1/54/6 9/56/6
f 9/56/6 1/54/6 5/57/6
f 9/56/6 5/57/6 7/58/6
f 11/55/6 13/59/6 17/53/6
f 17/53/6 13/59/6 15/60/6
