# Blender v3.0.0 OBJ File: 'ABC.blend'
# www.blender.org
mtllib H.mtl
o H
v -0.170005 -0.212333 0.050000
v -0.170005 0.221104 0.050000
v -0.170005 -0.212333 -0.050000
v -0.170005 0.221104 -0.050000
v -0.112646 -0.212333 0.050000
v -0.112646 -0.212333 -0.050000
v -0.112646 -0.034346 0.050000
v -0.112646 -0.034346 -0.050000
v 0.112647 -0.034346 0.050000
v 0.112647 -0.034346 -0.050000
v 0.112647 -0.212333 0.050000
v 0.112647 -0.212333 -0.050000
v 0.170005 -0.212333 0.050000
v 0.170005 -0.212333 -0.050000
v 0.170005 0.221104 0.050000
v 0.170005 0.221104 -0.050000
v 0.112647 0.221104 0.050000
v 0.112647 0.221104 -0.050000
v 0.112647 0.016803 0.050000
v 0.112647 0.016803 -0.050000
v -0.112646 0.016803 0.050000
v -0.112646 0.016803 -0.050000
v -0.112646 0.221104 0.050000
v -0.112646 0.221104 -0.050000
vt 0.000000 0.000000
vt 2.167189 0.000000
vt 0.000000 0.500000
vt 2.167189 0.500000
vt -0.000000 0.000000
vt 0.286790 0.000000
vt -0.000000 0.500000
vt 0.286790 0.500000
vt -0.000000 0.000000
vt 0.889937 0.000000
vt -0.000000 0.500000
vt 0.889937 0.500000
vt -0.000000 0.000000
vt 1.126465 0.000000
vt -0.000000 0.500000
vt 1.126465 0.500000
vt 0.000000 0.000000
vt 0.889937 0.000000
vt 0.000000 0.500000
vt 0.889937 0.500000
vt -0.000000 0.000000
vt 0.286790 0.000000
vt -0.000000 0.500000
vt 0.286790 0.500000
vt -0.000000 0.000000
vt 2.167189 0.000000
vt -0.000000 0.500000
vt 2.167189 0.500000
vt 0.000000 0.000000
vt 0.286790 0.000000
vt 0.000000 0.500000
vt 0.286790 0.500000
vt 0.000000 0.000000
vt 1.021506 0.000000
vt 0.000000 0.500000
vt 1.021506 0.500000
vt 0.000000 0.000000
vt 1.126465 0.000000
vt 0.000000 0.500000
vt 1.126465 0.500000
vt -0.000000 0.000000
vt 1.021506 0.000000
vt -0.000000 0.500000
vt 1.021506 0.500000
vt 0.000000 0.000000
vt 0.286790 0.000000
vt 0.000000 0.500000
vt 0.286790 0.500000
vt 1.083595 -0.563233
vt 0.062089 -0.563233
vt 1.083595 -0.850023
vt -1.083595 -0.850023
vt -0.193657 -0.563233
vt -1.083595 -0.563233
vt -0.193657 0.563233
vt 0.062089 0.563233
vt -1.083595 0.850023
vt 1.083595 0.850023
vt 1.083595 0.563233
vt -1.083595 0.563233
vt 0.563233 -1.083595
vt 0.850023 -1.083595
vt 0.563233 -0.062089
vt 0.850023 1.083595
vt 0.563233 0.193657
vt 0.563233 1.083595
vt -0.563233 0.193657
vt -0.563233 -0.062089
vt -0.850023 1.083595
vt -0.850023 -1.083595
vt -0.563233 1.083595
vt -0.563233 -1.083595
vn -1.0000 0.0000 0.0000
vn 0.0000 -1.0000 0.0000
vn 1.0000 0.0000 0.0000
vn 0.0000 1.0000 0.0000
vn 0.0000 0.0000 -1.0000
vn 0.0000 0.0000 1.0000
usemtl Aluminum_-_Anodized_Glossy_(Red).010
s 1
f 1/1/1 2/2/1 3/3/1
f 3/3/1 2/2/1 4/4/1
f 5/5/2 1/6/2 6/7/2
f 6/7/2 1/6/2 3/8/2
f 7/9/3 5/10/3 8/11/3
f 8/11/3 5/10/3 6/12/3
f 9/13/2 7/14/2 10/15/2
f 10/15/2 7/14/2 8/16/2
f 11/17/1 9/18/1 12/19/1
f 12/19/1 9/18/1 10/20/1
f 13/21/2 11/22/2 14/23/2
f 14/23/2 11/22/2 12/24/2
f 15/25/3 13/26/3 16/27/3
f 16/27/3 13/26/3 14/28/3
f 17/29/4 15/30/4 18/31/4
f 18/31/4 15/30/4 16/32/4
f 19/33/1 17/34/1 20/35/1
f 20/35/1 17/34/1 18/36/1
f 21/37/4 19/38/4 22/39/4
f 22/39/4 19/38/4 20/40/4
f 23/41/3 21/42/3 24/43/3
f 24/43/3 21/42/3 22/44/3
f 2/45/4 23/46/4 4/47/4
f 4/47/4 23/46/4 24/48/4
usemtl Bronze_-_Polished.010
f 24/49/5 22/50/5 4/51/5
f 4/51/5 22/50/5 3/52/5
f 3/52/5 22/50/5 8/53/5
f 3/52/5 8/53/5 6/54/5
f 8/53/5 22/50/5 10/55/5
f 10/55/5 22/50/5 20/56/5
f 10/55/5 20/56/5 14/57/5
f 14/57/5 20/56/5 16/58/5
f 16/58/5 20/56/5 18/59/5
f 14/57/5 12/60/5 10/55/5
f 23/61/6 2/62/6 21/63/6
f 21/63/6 2/62/6 1/64/6
f 21/63/6 1/64/6 7/65/6
f 7/65/6 1/64/6 5/66/6
f 7/65/6 9/67/6 21/63/6
f 21/63/6 9/67/6 19/68/6
f 19/68/6 9/67/6 13/69/6
f 19/68/6 13/69/6 15/70/6
f 9/67/6 11/71/6 13/69/6
f 15/70/6 17/72/6 19/68/6
