# Blender v3.0.0 OBJ File: 'ABC.blend'
# www.blender.org
mtllib M.mtl
o M
v -0.208704 -0.273373 0.050000
v -0.208704 0.160065 0.050000
v -0.208704 -0.273373 -0.050000
v -0.208704 0.160065 -0.050000
v -0.122371 -0.273373 0.050000
v -0.122371 -0.273373 -0.050000
v -0.019777 0.033522 0.050000
v -0.019777 0.033522 -0.050000
v 0.000919 0.097681 0.050000
v -0.004133 0.081602 0.050000
v 0.000919 0.097681 -0.050000
v -0.004133 0.081602 -0.050000
v -0.009261 0.065548 0.050000
v -0.009261 0.065548 -0.050000
v -0.014492 0.049527 0.050000
v -0.014492 0.049527 -0.050000
v 0.023981 0.028201 0.050000
v 0.018076 0.045525 0.050000
v 0.023981 0.028201 -0.050000
v 0.018076 0.045525 -0.050000
v 0.012240 0.062871 0.050000
v 0.012240 0.062871 -0.050000
v 0.006533 0.080260 0.050000
v 0.006533 0.080260 -0.050000
v 0.127758 -0.273373 0.050000
v 0.127758 -0.273373 -0.050000
v 0.204925 -0.273373 0.050000
v 0.204925 -0.273373 -0.050000
v 0.204925 0.160065 0.050000
v 0.204925 0.160065 -0.050000
v 0.149637 0.160065 0.050000
v 0.149637 0.160065 -0.050000
v 0.149637 -0.202710 0.050000
v 0.149637 -0.202710 -0.050000
v 0.023685 0.160065 0.050000
v 0.023685 0.160065 -0.050000
v -0.028055 0.160065 0.050000
v -0.028055 0.160065 -0.050000
v -0.153415 -0.208919 0.050000
v -0.153415 -0.208919 -0.050000
v -0.153415 0.160065 0.050000
v -0.153415 0.160065 -0.050000
vt 0.000000 0.000000
vt 2.167189 0.000000
vt 0.000000 0.500000
vt 2.167189 0.500000
vt -0.000000 0.000000
vt 0.431664 0.000000
vt -0.000000 0.500000
vt 0.431664 0.500000
vt -0.000000 0.000000
vt 1.617948 0.000000
vt -0.000000 0.500000
vt 1.617948 0.500000
vt -0.337069 0.000000
vt -0.252802 0.000000
vt -0.337069 0.500000
vt -0.252802 0.500000
vt -0.168535 0.000000
vt -0.168535 0.500000
vt -0.084267 0.000000
vt -0.084267 0.500000
vt -0.366037 0.000000
vt -0.274528 0.000000
vt -0.366037 0.500000
vt -0.274528 0.500000
vt -0.183019 0.000000
vt -0.183019 0.500000
vt -0.091509 0.000000
vt -0.091509 0.500000
vt 0.000000 0.000000
vt 0.000000 0.500000
vt 0.000000 0.000000
vt 1.594648 0.000000
vt 0.000000 0.500000
vt 1.594648 0.500000
vt -0.000000 0.000000
vt 0.385836 0.000000
vt -0.000000 0.500000
vt 0.385836 0.500000
vt -0.000000 0.000000
vt 2.167189 0.000000
vt -0.000000 0.500000
vt 2.167189 0.500000
vt 0.000000 0.000000
vt 0.276442 0.000000
vt 0.000000 0.500000
vt 0.276442 0.500000
vt 0.000000 0.000000
vt 1.813875 0.000000
vt 0.000000 0.500000
vt 1.813875 0.500000
vt 0.000000 0.000000
vt 1.920088 0.000000
vt 0.000000 0.500000
vt 1.920088 0.500000
vt 0.000000 0.000000
vt 0.258703 0.000000
vt 0.000000 0.500000
vt 0.258703 0.500000
vt 0.000000 0.000000
vt 1.948488 0.000000
vt 0.000000 0.500000
vt 1.948488 0.500000
vt -0.000000 0.000000
vt 1.844920 0.000000
vt -0.000000 0.500000
vt 1.844920 0.500000
vt 0.000000 0.000000
vt 0.276442 0.000000
vt 0.000000 0.500000
vt 0.276442 0.500000
vt -0.757629 -1.083595
vt -0.757629 0.761325
vt -1.034071 -1.083595
vt -1.034071 1.083595
vt -0.602408 1.083595
vt -0.089437 -0.450882
vt -0.130829 -1.083595
vt -0.063014 -0.530902
vt -0.036862 -0.611009
vt -0.011220 -0.691280
vt 0.014044 -0.771673
vt 0.127873 -1.083595
vt 0.042110 -0.684571
vt 0.070647 -0.597625
vt 0.099828 -0.510892
vt 0.129351 -0.424272
vt 0.757629 0.730281
vt 0.648235 1.083595
vt 1.034071 1.083595
vt 1.034071 -1.083595
vt 0.757629 -1.083595
vt 0.757629 -1.083595
vt 1.034071 -1.083595
vt 0.757629 0.761325
vt 1.034071 1.083595
vt 0.602408 1.083595
vt 0.089437 -0.450882
vt 0.130829 -1.083595
vt 0.063014 -0.530902
vt 0.036862 -0.611009
vt 0.011220 -0.691280
vt -0.014044 -0.771673
vt -0.127873 -1.083595
vt -0.042110 -0.684571
vt -0.070647 -0.597625
vt -0.099828 -0.510892
vt -0.129351 -0.424272
vt -0.757629 0.730281
vt -0.648235 1.083595
vt -1.034071 1.083595
vt -1.034071 -1.083595
vt -0.757629 -1.083595
vn -1.0000 0.0000 0.0000
vn 0.0000 -1.0000 0.0000
vn 0.9495 -0.3139 0.0000
vn 0.9484 -0.3170 0.0000
vn 0.9485 -0.3168 -0.0000
vn 0.9542 -0.2993 -0.0000
vn 0.9535 -0.3015 0.0000
vn 0.9542 -0.2992 0.0000
vn 0.9516 -0.3073 0.0000
vn 0.9499 -0.3124 0.0000
vn 0.9501 -0.3120 0.0000
vn -0.9457 -0.3252 -0.0000
vn -0.9471 -0.3211 0.0000
vn -0.9461 -0.3240 0.0000
vn -0.9470 -0.3212 0.0000
vn -0.9488 -0.3159 0.0000
vn -0.9489 -0.3157 0.0000
vn -0.9512 -0.3085 0.0000
vn -0.9521 -0.3058 -0.0000
vn -0.9456 -0.3254 0.0000
vn 1.0000 0.0000 0.0000
vn 0.0000 1.0000 0.0000
vn 0.9447 0.3280 0.0000
vn -0.9468 0.3217 0.0000
vn 0.0000 0.0000 -1.0000
vn 0.0000 0.0000 1.0000
usemtl Aluminum_-_Anodized_Glossy_(Red).017
s 1
f 1/1/1 2/2/1 3/3/1
f 3/3/1 2/2/1 4/4/1
f 5/5/2 1/6/2 6/7/2
f 6/7/2 1/6/2 3/8/2
f 7/9/3 5/10/4 8/11/5
f 8/11/5 5/10/4 6/12/4
f 9/13/6 10/14/7 11/15/8
f 11/15/8 10/14/7 12/16/7
f 12/16/7 10/14/7 13/17/9
f 12/16/7 13/17/9 14/18/9
f 14/18/9 13/17/9 15/19/10
f 14/18/9 15/19/10 16/20/11
f 16/20/11 15/19/10 7/9/3
f 16/20/11 7/9/3 8/11/5
f 17/21/12 18/22/13 19/23/14
f 19/23/14 18/22/13 20/24/15
f 20/24/15 18/22/13 21/25/16
f 20/24/15 21/25/16 22/26/17
f 22/26/17 21/25/16 23/27/18
f 22/26/17 23/27/18 24/28/18
f 24/28/18 23/27/18 9/29/19
f 24/28/18 9/29/19 11/30/19
f 25/31/20 17/32/12 26/33/20
f 26/33/20 17/32/12 19/34/14
f 27/35/2 25/36/2 28/37/2
f 28/37/2 25/36/2 26/38/2
f 29/39/21 27/40/21 30/41/21
f 30/41/21 27/40/21 28/42/21
f 31/43/22 29/44/22 32/45/22
f 32/45/22 29/44/22 30/46/22
f 33/47/1 31/48/1 34/49/1
f 34/49/1 31/48/1 32/50/1
f 35/51/23 33/52/23 36/53/23
f 36/53/23 33/52/23 34/54/23
f 37/55/22 35/56/22 38/57/22
f 38/57/22 35/56/22 36/58/22
f 39/59/24 37/60/24 40/61/24
f 40/61/24 37/60/24 38/62/24
f 41/63/21 39/64/21 42/65/21
f 42/65/21 39/64/21 40/66/21
f 2/67/22 41/68/22 4/69/22
f 4/69/22 41/68/22 42/70/22
usemtl Bronze_-_Polished.017
f 42/71/25 40/72/25 4/73/25
f 4/73/25 40/72/25 3/74/25
f 3/74/25 40/72/25 6/75/25
f 6/75/25 40/72/25 8/76/25
f 8/76/25 40/72/25 38/77/25
f 8/76/25 38/77/25 16/78/25
f 16/78/25 38/77/25 14/79/25
f 14/79/25 38/77/25 12/80/25
f 12/80/25 38/77/25 11/81/25
f 11/81/25 38/77/25 36/82/25
f 11/81/25 36/82/25 24/83/25
f 24/83/25 36/82/25 22/84/25
f 22/84/25 36/82/25 20/85/25
f 20/85/25 36/82/25 19/86/25
f 19/86/25 36/82/25 34/87/25
f 19/86/25 34/87/25 26/88/25
f 26/88/25 34/87/25 28/89/25
f 28/89/25 34/87/25 30/90/25
f 30/90/25 34/87/25 32/91/25
f 41/92/26 2/93/26 39/94/26
f 39/94/26 2/93/26 1/95/26
f 39/94/26 1/95/26 5/96/26
f 5/96/26 7/97/26 39/94/26
f 39/94/26 7/97/26 37/98/26
f 37/98/26 7/97/26 15/99/26
f 37/98/26 15/99/26 13/100/26
f 13/100/26 10/101/26 37/98/26
f 37/98/26 10/101/26 9/102/26
f 37/98/26 9/102/26 35/103/26
f 35/103/26 9/102/26 23/104/26
f 35/103/26 23/104/26 21/105/26
f 21/105/26 18/106/26 35/103/26
f 35/103/26 18/106/26 17/107/26
f 35/103/26 17/107/26 33/108/26
f 33/108/26 17/107/26 25/109/26
f 33/108/26 25/109/26 27/110/26
f 27/110/26 29/111/26 33/108/26
f 33/108/26 29/111/26 31/112/26
