# Blender v3.0.0 OBJ File: 'ABC.blend'
# www.blender.org
mtllib T.mtl
o T
v -0.028827 -0.082785 0.050000
v -0.028827 0.299504 0.050000
v -0.028827 -0.082785 -0.050000
v -0.028827 0.299504 -0.050000
v -0.171631 -0.082785 0.050000
v -0.171631 -0.082785 -0.050000
v -0.171631 -0.133934 0.050000
v -0.171631 -0.133934 -0.050000
v 0.171927 -0.133934 0.050000
v 0.171927 -0.133934 -0.050000
v 0.171927 -0.082785 0.050000
v 0.171927 -0.082785 -0.050000
v 0.028531 -0.082785 0.050000
v 0.028531 -0.082785 -0.050000
v 0.028531 0.299504 0.050000
v 0.028531 0.299504 -0.050000
vt 0.000000 0.000000
vt 1.911443 0.000000
vt 0.000000 0.500000
vt 1.911443 0.500000
vt 0.000000 0.000000
vt 0.714019 0.000000
vt 0.000000 0.500000
vt 0.714019 0.500000
vt 0.000000 0.000000
vt 0.255746 0.000000
vt 0.000000 0.500000
vt 0.255746 0.500000
vt -0.000000 0.000000
vt 1.717786 0.000000
vt -0.000000 0.500000
vt 1.717786 0.500000
vt -0.000000 0.000000
vt 0.255746 0.000000
vt -0.000000 0.500000
vt 0.255746 0.500000
vt 0.000000 0.000000
vt 0.716976 0.000000
vt 0.000000 0.500000
vt 0.716976 0.500000
vt -0.000000 0.000000
vt 1.911443 0.000000
vt -0.000000 0.500000
vt 1.911443 0.500000
vt 0.000000 0.000000
vt 0.286790 0.000000
vt 0.000000 0.500000
vt 0.286790 0.500000
vt 1.083595 0.141917
vt -0.827849 0.141917
vt 1.083595 -0.144873
vt -0.827849 -0.144873
vt -1.083595 -0.858893
vt -0.827849 -0.858893
vt -0.827849 0.858893
vt -1.083595 0.858893
vt -0.141917 -1.083595
vt 0.144873 -1.083595
vt -0.141917 0.827849
vt 0.144873 0.827849
vt 0.858893 1.083595
vt 0.858893 0.827849
vt -0.858893 1.083595
vt -0.858893 0.827849
vn -1.0000 0.0000 0.0000
vn 0.0000 1.0000 0.0000
vn 0.0000 -1.0000 0.0000
vn 1.0000 0.0000 0.0000
vn 0.0000 0.0000 -1.0000
vn 0.0000 0.0000 1.0000
usemtl Aluminum_-_Anodized_Glossy_(Red).024
s 1
f 1/1/1 2/2/1 3/3/1
f 3/3/1 2/2/1 4/4/1
f 5/5/2 1/6/2 6/7/2
f 6/7/2 1/6/2 3/8/2
f 7/9/1 5/10/1 8/11/1
f 8/11/1 5/10/1 6/12/1
f 9/13/3 7/14/3 10/15/3
f 10/15/3 7/14/3 8/16/3
f 11/17/4 9/18/4 12/19/4
f 12/19/4 9/18/4 10/20/4
f 13/21/2 11/22/2 14/23/2
f 14/23/2 11/22/2 12/24/2
f 15/25/4 13/26/4 16/27/4
f 16/27/4 13/26/4 14/28/4
f 2/29/2 15/30/2 4/31/2
f 4/31/2 15/30/2 16/32/2
usemtl Bronze_-_Polished.024
f 16/33/5 14/34/5 4/35/5
f 4/35/5 14/34/5 3/36/5
f 3/36/5 14/34/5 8/37/5
f 3/36/5 8/37/5 6/38/5
f 12/39/5 10/40/5 14/34/5
f 14/34/5 10/40/5 8/37/5
f 15/41/6 2/42/6 13/43/6
f 13/43/6 2/42/6 1/44/6
f 13/43/6 1/44/6 7/45/6
f 7/45/6 1/44/6 5/46/6
f 7/45/6 9/47/6 13/43/6
f 13/43/6 9/47/6 11/48/6
