# Blender v3.0.0 OBJ File: 'ABC.blend'
# www.blender.org
mtllib U.mtl
o U
v 0.170572 -0.329276 0.050000
v 0.113214 -0.329276 0.050000
v 0.170572 -0.329276 -0.050000
v 0.113214 -0.329276 -0.050000
v 0.170572 -0.078852 0.050000
v 0.170572 -0.078852 -0.050000
v 0.155789 0.024925 0.050000
v 0.162755 -0.000519 0.050000
v 0.155789 0.024925 -0.050000
v 0.162755 -0.000519 -0.050000
v 0.167769 -0.026261 0.050000
v 0.167769 -0.026261 -0.050000
v 0.169946 -0.052438 0.050000
v 0.169946 -0.052438 -0.050000
v 0.102422 0.087457 0.050000
v 0.119337 0.074846 0.050000
v 0.102422 0.087457 -0.050000
v 0.119337 0.074846 -0.050000
v 0.134340 0.060618 0.050000
v 0.134340 0.060618 -0.050000
v 0.146074 0.043625 0.050000
v 0.146074 0.043625 -0.050000
v 0.001159 0.111553 0.050000
v 0.027666 0.110288 0.050000
v 0.001159 0.111553 -0.050000
v 0.027666 0.110288 -0.050000
v 0.053560 0.106570 0.050000
v 0.053560 0.106570 -0.050000
v 0.078354 0.098463 0.050000
v 0.078354 0.098463 -0.050000
v -0.098479 0.090562 0.050000
v -0.074531 0.100148 0.050000
v -0.098479 0.090562 -0.050000
v -0.074531 0.100148 -0.050000
v -0.050024 0.107211 0.050000
v -0.050024 0.107211 -0.050000
v -0.024669 0.110450 0.050000
v -0.024669 0.110450 -0.050000
v -0.153767 0.029803 0.050000
v -0.143646 0.048353 0.050000
v -0.153767 0.029803 -0.050000
v -0.143646 0.048353 -0.050000
v -0.131497 0.065062 0.050000
v -0.131497 0.065062 -0.050000
v -0.115990 0.078721 0.050000
v -0.115990 0.078721 -0.050000
v -0.170324 -0.078852 0.050000
v -0.169636 -0.051122 0.050000
v -0.170324 -0.078852 -0.050000
v -0.169636 -0.051122 -0.050000
v -0.167207 -0.023678 0.050000
v -0.167207 -0.023678 -0.050000
v -0.161588 0.003243 0.050000
v -0.161588 0.003243 -0.050000
v -0.170324 -0.329276 0.050000
v -0.170324 -0.329276 -0.050000
v -0.112966 -0.329276 0.050000
v -0.112966 -0.329276 -0.050000
v -0.112966 -0.079147 0.050000
v -0.112966 -0.079147 -0.050000
v -0.102470 0.004081 0.050000
v -0.107673 -0.016363 0.050000
v -0.102470 0.004081 -0.050000
v -0.107673 -0.016363 -0.050000
v -0.111274 -0.037033 0.050000
v -0.111274 -0.037033 -0.050000
v -0.112698 -0.058009 0.050000
v -0.112698 -0.058009 -0.050000
v -0.066400 0.045325 0.050000
v -0.077929 0.037206 0.050000
v -0.066400 0.045325 -0.050000
v -0.077929 0.037206 -0.050000
v -0.088094 0.027897 0.050000
v -0.088094 0.027897 -0.050000
v -0.095973 0.016591 0.050000
v -0.095973 0.016591 -0.050000
v -0.003867 0.059813 0.050000
v -0.020161 0.058943 0.050000
v -0.003867 0.059813 -0.050000
v -0.020161 0.058943 -0.050000
v -0.036109 0.056633 0.050000
v -0.036109 0.056633 -0.050000
v -0.051449 0.051790 0.050000
v -0.051449 0.051790 -0.050000
v 0.086309 0.031134 0.050000
v 0.066047 0.044857 0.050000
v 0.086309 0.031134 -0.050000
v 0.066047 0.044857 -0.050000
v 0.055482 0.050474 0.050000
v 0.055482 0.050474 -0.050000
v 0.044406 0.054621 0.050000
v 0.044406 0.054621 -0.050000
v 0.032803 0.057255 0.050000
v 0.032803 0.057255 -0.050000
v 0.020801 0.058744 0.050000
v 0.020801 0.058744 -0.050000
v 0.113214 -0.079147 0.050000
v 0.112771 -0.049815 0.050000
v 0.113214 -0.079147 -0.050000
v 0.112771 -0.049815 -0.050000
v 0.111599 -0.035415 0.050000
v 0.111599 -0.035415 -0.050000
v 0.109286 -0.021336 0.050000
v 0.109286 -0.021336 -0.050000
v 0.105454 -0.007682 0.050000
v 0.105454 -0.007682 -0.050000
v 0.100009 0.005519 0.050000
v 0.100009 0.005519 -0.050000
vt -0.000000 0.000000
vt 0.286790 0.000000
vt -0.000000 0.500000
vt 0.286790 0.500000
vt -0.000000 0.000000
vt 1.252121 0.000000
vt -0.000000 0.500000
vt 1.252121 0.500000
vt -0.524190 0.000000
vt -0.393142 0.000000
vt -0.524190 0.500000
vt -0.393142 0.500000
vt -0.262095 0.000000
vt -0.262095 0.500000
vt -0.131047 0.000000
vt -0.131047 0.500000
vt -0.411055 0.000000
vt -0.308291 0.000000
vt -0.411055 0.500000
vt -0.308291 0.500000
vt -0.205527 0.000000
vt -0.205527 0.500000
vt -0.102764 0.000000
vt -0.102764 0.500000
vt 0.000000 0.000000
vt 0.000000 0.500000
vt -0.520547 0.000000
vt -0.390410 0.000000
vt -0.520547 0.500000
vt -0.390410 0.500000
vt -0.260274 0.000000
vt -0.260274 0.500000
vt -0.130137 0.000000
vt -0.130137 0.500000
vt 0.000000 0.000000
vt 0.000000 0.500000
vt -0.509195 0.000000
vt -0.381896 0.000000
vt -0.509195 0.500000
vt -0.381896 0.500000
vt -0.254598 0.000000
vt -0.254598 0.500000
vt -0.127299 0.000000
vt -0.127299 0.500000
vt 0.000000 0.000000
vt 0.000000 0.500000
vt -0.410743 0.000000
vt -0.308057 0.000000
vt -0.410743 0.500000
vt -0.308057 0.500000
vt -0.205372 0.000000
vt -0.205372 0.500000
vt -0.102686 0.000000
vt -0.102686 0.500000
vt 0.000000 0.000000
vt 0.000000 0.500000
vt -0.549631 0.000000
vt -0.412223 0.000000
vt -0.549631 0.500000
vt -0.412223 0.500000
vt -0.274815 0.000000
vt -0.274815 0.500000
vt -0.137408 0.000000
vt -0.137408 0.500000
vt 0.000000 0.000000
vt 0.000000 0.500000
vt 0.000000 0.000000
vt 1.252121 0.000000
vt 0.000000 0.500000
vt 1.252121 0.500000
vt -0.000000 0.000000
vt 0.286790 0.000000
vt -0.000000 0.500000
vt 0.286790 0.500000
vt -0.000000 0.000000
vt 1.250643 0.000000
vt -0.000000 0.500000
vt 1.250643 0.500000
vt -0.419534 0.000000
vt -0.314651 0.000000
vt -0.419534 0.500000
vt -0.314651 0.500000
vt -0.209767 0.000000
vt -0.209767 0.500000
vt -0.104884 0.000000
vt -0.104884 0.500000
vt -0.273962 0.000000
vt -0.205472 0.000000
vt -0.273962 0.500000
vt -0.205472 0.500000
vt -0.136981 0.000000
vt -0.136981 0.500000
vt -0.068491 0.000000
vt -0.068491 0.500000
vt 0.000000 0.000000
vt 0.000000 0.500000
vt -0.320968 0.000000
vt -0.240726 0.000000
vt -0.320968 0.500000
vt -0.240726 0.500000
vt -0.160484 0.000000
vt -0.160484 0.500000
vt -0.080242 0.000000
vt -0.080242 0.500000
vt 0.000000 0.000000
vt 0.000000 0.500000
vt -0.473545 0.000000
vt -0.355158 0.000000
vt -0.473545 0.500000
vt -0.355158 0.500000
vt -0.295965 0.000000
vt -0.295965 0.500000
vt -0.236772 0.000000
vt -0.236772 0.500000
vt -0.177579 0.000000
vt -0.177579 0.500000
vt -0.118386 0.000000
vt -0.118386 0.500000
vt 0.000000 0.000000
vt 0.000000 0.500000
vt -0.568265 0.000000
vt -0.426199 0.000000
vt -0.568265 0.500000
vt -0.426199 0.500000
vt -0.355166 0.000000
vt -0.355166 0.500000
vt -0.284133 0.000000
vt -0.284133 0.500000
vt -0.213099 0.000000
vt -0.213099 0.500000
vt -0.142066 0.000000
vt -0.142066 0.500000
vt 0.000000 0.000000
vt 0.000000 0.500000
vt 0.000000 0.000000
vt 1.250643 0.000000
vt 0.000000 0.500000
vt 1.250643 0.500000
vt 0.565450 1.102073
vt 0.565450 -0.148569
vt 0.852240 1.102073
vt 0.852240 -0.150048
vt 0.849112 -0.282118
vt 0.563238 -0.295231
vt 0.838228 -0.413001
vt 0.557378 -0.367229
vt 0.545813 -0.437627
vt 0.813156 -0.541713
vt 0.526652 -0.505895
vt 0.778325 -0.668931
vt 0.499424 -0.571901
vt 0.729749 -0.762430
vt 0.671083 -0.847397
vt 0.430925 -0.699975
vt 0.596068 -0.918537
vt 0.511492 -0.981592
vt 0.329614 -0.768591
vt 0.391152 -1.036620
vt 0.276793 -0.796679
vt 0.267181 -1.077158
vt 0.221410 -0.817409
vt 0.163395 -0.830581
vt 0.137713 -1.095745
vt 0.103386 -0.838026
vt 0.005174 -1.102073
vt -0.019957 -0.843371
vt -0.123965 -1.096556
vt -0.101423 -0.839020
vt -0.181162 -0.827469
vt -0.250738 -1.080360
vt -0.257863 -0.803258
vt -0.373274 -1.045046
vt -0.332618 -0.770934
vt -0.493013 -0.997114
vt -0.390265 -0.730338
vt -0.580568 -0.937913
vt -0.441092 -0.683790
vt -0.658106 -0.869618
vt -0.480483 -0.627263
vt -0.718850 -0.786074
vt -0.512970 -0.564711
vt -0.769456 -0.693323
vt -0.808556 -0.560523
vt -0.538985 -0.462491
vt -0.836653 -0.425918
vt -0.556989 -0.359144
vt -0.848800 -0.288697
vt -0.564111 -0.254264
vt -0.852240 -0.150048
vt -0.565450 -0.148569
vt -0.852240 1.102073
vt -0.565450 1.102073
vt -0.565450 1.102073
vt -0.852240 1.102073
vt -0.565450 -0.148569
vt -0.852240 -0.150048
vt -0.849112 -0.282118
vt -0.563238 -0.295231
vt -0.838228 -0.413001
vt -0.557378 -0.367229
vt -0.545813 -0.437627
vt -0.813156 -0.541713
vt -0.526652 -0.505895
vt -0.778325 -0.668931
vt -0.499424 -0.571901
vt -0.729749 -0.762430
vt -0.671083 -0.847397
vt -0.430925 -0.699975
vt -0.596068 -0.918537
vt -0.511492 -0.981592
vt -0.329614 -0.768591
vt -0.391152 -1.036620
vt -0.276793 -0.796679
vt -0.267181 -1.077158
vt -0.221410 -0.817409
vt -0.163395 -0.830581
vt -0.137713 -1.095745
vt -0.103386 -0.838026
vt -0.005174 -1.102073
vt 0.019957 -0.843371
vt 0.123965 -1.096556
vt 0.101423 -0.839020
vt 0.181162 -0.827469
vt 0.250738 -1.080360
vt 0.257863 -0.803258
vt 0.373274 -1.045046
vt 0.332618 -0.770934
vt 0.493013 -0.997114
vt 0.390265 -0.730338
vt 0.580568 -0.937913
vt 0.441092 -0.683790
vt 0.658106 -0.869618
vt 0.480483 -0.627263
vt 0.718850 -0.786074
vt 0.512970 -0.564711
vt 0.769456 -0.693323
vt 0.808556 -0.560523
vt 0.538985 -0.462491
vt 0.836653 -0.425918
vt 0.556989 -0.359144
vt 0.848800 -0.288697
vt 0.564111 -0.254264
vt 0.852240 -0.150048
vt 0.565450 -0.148569
vt 0.852240 1.102073
vt 0.565450 1.102073
vn 0.0000 -1.0000 0.0000
vn 1.0000 0.0048 0.0000
vn 1.0000 0.0000 0.0000
vn 1.0000 0.0021 0.0000
vn 0.9611 0.2760 -0.0000
vn 0.9708 0.2399 0.0000
vn 0.9912 0.1323 0.0000
vn 0.9912 0.1324 -0.0000
vn 0.9991 0.0434 0.0000
vn 0.5822 0.8130 -0.0000
vn 0.6284 0.7779 -0.0000
vn 0.7579 0.6524 0.0000
vn 0.8677 0.4971 0.0000
vn 0.8966 0.4429 -0.0000
vn 0.0322 0.9995 -0.0000
vn 0.0789 0.9969 0.0000
vn 0.2213 0.9752 0.0000
vn 0.3817 0.9243 0.0000
vn 0.4326 0.9016 -0.0000
vn -0.3869 0.9221 -0.0000
vn -0.3407 0.9402 -0.0000
vn -0.3868 0.9221 0.0000
vn -0.3406 0.9402 0.0000
vn -0.1972 0.9804 0.0000
vn -0.0705 0.9975 0.0000
vn -0.0706 0.9975 0.0000
vn -0.0288 0.9996 -0.0000
vn -0.8877 0.4605 -0.0000
vn -0.8568 0.5157 0.0000
vn -0.8567 0.5157 0.0000
vn -0.7389 0.6738 0.0000
vn -0.7388 0.6739 0.0000
vn -0.5943 0.8042 0.0000
vn -0.5429 0.8398 -0.0000
vn -0.9999 0.0143 -0.0000
vn -0.9989 0.0459 0.0000
vn -0.9900 0.1412 0.0000
vn -0.9665 0.2566 0.0000
vn -0.9554 0.2952 -0.0000
vn -1.0000 0.0000 0.0000
vn 1.0000 -0.0020 0.0000
vn 1.0000 -0.0009 0.0000
vn 0.9659 -0.2591 0.0000
vn 0.9751 -0.2216 0.0000
vn 0.9659 -0.2590 -0.0000
vn 0.9935 -0.1139 0.0000
vn 0.9995 -0.0310 -0.0000
vn 0.5588 -0.8293 0.0000
vn 0.6096 -0.7927 0.0000
vn 0.5587 -0.8294 -0.0000
vn 0.7523 -0.6589 0.0000
vn 0.8670 -0.4982 -0.0000
vn 0.8969 -0.4422 0.0000
vn 0.0385 -0.9993 0.0000
vn 0.0832 -0.9965 0.0000
vn 0.2187 -0.9758 0.0000
vn 0.3656 -0.9308 0.0000
vn 0.4122 -0.9111 0.0000
vn -0.5833 -0.8122 0.0000
vn -0.5133 -0.8582 -0.0000
vn -0.5134 -0.8582 0.0000
vn -0.4171 -0.9089 0.0000
vn -0.2817 -0.9595 -0.0000
vn -0.1666 -0.9860 -0.0000
vn -0.0855 -0.9963 0.0000
vn -0.0225 -0.9997 0.0000
vn -1.0000 0.0008 0.0000
vn -0.9987 -0.0502 -0.0000
vn -1.0000 0.0015 -0.0000
vn -0.9987 -0.0501 0.0000
vn -0.9931 -0.1169 0.0000
vn -0.9931 -0.1170 -0.0000
vn -0.9773 -0.2119 0.0000
vn -0.9438 -0.3305 -0.0000
vn -0.9055 -0.4244 0.0000
vn -0.8693 -0.4944 0.0000
vn 0.0000 0.0000 -1.0000
vn 0.0000 0.0000 1.0000
usemtl Aluminum_-_Anodized_Glossy_(Red).025
s 1
f 1/1/1 2/2/1 3/3/1
f 3/3/1 2/2/1 4/4/1
f 5/5/2 1/6/3 6/7/4
f 6/7/4 1/6/3 3/8/3
f 7/9/5 8/10/6 9/11/5
f 9/11/5 8/10/6 10/12/6
f 10/12/6 8/10/6 11/13/7
f 10/12/6 11/13/7 12/14/8
f 12/14/8 11/13/7 13/15/9
f 12/14/8 13/15/9 14/16/9
f 14/16/9 13/15/9 5/5/2
f 14/16/9 5/5/2 6/7/4
f 15/17/10 16/18/11 17/19/10
f 17/19/10 16/18/11 18/20/11
f 18/20/11 16/18/11 19/21/12
f 18/20/11 19/21/12 20/22/12
f 20/22/12 19/21/12 21/23/13
f 20/22/12 21/23/13 22/24/13
f 22/24/13 21/23/13 7/25/14
f 22/24/13 7/25/14 9/26/14
f 23/27/15 24/28/16 25/29/15
f 25/29/15 24/28/16 26/30/16
f 26/30/16 24/28/16 27/31/17
f 26/30/16 27/31/17 28/32/17
f 28/32/17 27/31/17 29/33/18
f 28/32/17 29/33/18 30/34/18
f 30/34/18 29/33/18 15/35/19
f 30/34/18 15/35/19 17/36/19
f 31/37/20 32/38/21 33/39/22
f 33/39/22 32/38/21 34/40/23
f 34/40/23 32/38/21 35/41/24
f 34/40/23 35/41/24 36/42/24
f 36/42/24 35/41/24 37/43/25
f 36/42/24 37/43/25 38/44/26
f 38/44/26 37/43/25 23/45/27
f 38/44/26 23/45/27 25/46/27
f 39/47/28 40/48/29 41/49/28
f 41/49/28 40/48/29 42/50/30
f 42/50/30 40/48/29 43/51/31
f 42/50/30 43/51/31 44/52/32
f 44/52/32 43/51/31 45/53/33
f 44/52/32 45/53/33 46/54/33
f 46/54/33 45/53/33 31/55/34
f 46/54/33 31/55/34 33/56/34
f 47/57/35 48/58/36 49/59/35
f 49/59/35 48/58/36 50/60/36
f 50/60/36 48/58/36 51/61/37
f 50/60/36 51/61/37 52/62/37
f 52/62/37 51/61/37 53/63/38
f 52/62/37 53/63/38 54/64/38
f 54/64/38 53/63/38 39/65/39
f 54/64/38 39/65/39 41/66/39
f 55/67/40 47/68/40 56/69/40
f 56/69/40 47/68/40 49/70/40
f 57/71/1 55/72/1 58/73/1
f 58/73/1 55/72/1 56/74/1
f 59/75/41 57/76/3 60/77/42
f 60/77/42 57/76/3 58/78/3
f 61/79/43 62/80/44 63/81/45
f 63/81/45 62/80/44 64/82/44
f 64/82/44 62/80/44 65/83/46
f 64/82/44 65/83/46 66/84/46
f 66/84/46 65/83/46 67/85/47
f 66/84/46 67/85/47 68/86/47
f 68/86/47 67/85/47 59/75/41
f 68/86/47 59/75/41 60/77/42
f 69/87/48 70/88/49 71/89/50
f 71/89/50 70/88/49 72/90/49
f 72/90/49 70/88/49 73/91/51
f 72/90/49 73/91/51 74/92/51
f 74/92/51 73/91/51 75/93/52
f 74/92/51 75/93/52 76/94/52
f 76/94/52 75/93/52 61/95/53
f 76/94/52 61/95/53 63/96/53
f 77/97/54 78/98/55 79/99/54
f 79/99/54 78/98/55 80/100/55
f 80/100/55 78/98/55 81/101/56
f 80/100/55 81/101/56 82/102/56
f 82/102/56 81/101/56 83/103/57
f 82/102/56 83/103/57 84/104/57
f 84/104/57 83/103/57 69/105/58
f 84/104/57 69/105/58 71/106/58
f 85/107/59 86/108/60 87/109/59
f 87/109/59 86/108/60 88/110/61
f 88/110/61 86/108/60 89/111/62
f 88/110/61 89/111/62 90/112/62
f 90/112/62 89/111/62 91/113/63
f 90/112/62 91/113/63 92/114/63
f 92/114/63 91/113/63 93/115/64
f 92/114/63 93/115/64 94/116/64
f 94/116/64 93/115/64 95/117/65
f 94/116/64 95/117/65 96/118/65
f 96/118/65 95/117/65 77/119/66
f 96/118/65 77/119/66 79/120/66
f 97/121/67 98/122/68 99/123/69
f 99/123/69 98/122/68 100/124/70
f 100/124/70 98/122/68 101/125/71
f 100/124/70 101/125/71 102/126/72
f 102/126/72 101/125/71 103/127/73
f 102/126/72 103/127/73 104/128/73
f 104/128/73 103/127/73 105/129/74
f 104/128/73 105/129/74 106/130/74
f 106/130/74 105/129/74 107/131/75
f 106/130/74 107/131/75 108/132/75
f 108/132/75 107/131/75 85/133/76
f 108/132/75 85/133/76 87/134/76
f 2/135/40 97/136/67 4/137/40
f 4/137/40 97/136/67 99/138/69
usemtl Bronze_-_Polished.025
f 4/139/77 99/140/77 3/141/77
f 3/141/77 99/140/77 6/142/77
f 6/142/77 99/140/77 14/143/77
f 14/143/77 99/140/77 100/144/77
f 14/143/77 100/144/77 12/145/77
f 12/145/77 100/144/77 102/146/77
f 12/145/77 102/146/77 104/147/77
f 12/145/77 104/147/77 10/148/77
f 10/148/77 104/147/77 106/149/77
f 10/148/77 106/149/77 9/150/77
f 9/150/77 106/149/77 108/151/77
f 9/150/77 108/151/77 22/152/77
f 22/152/77 108/151/77 20/153/77
f 20/153/77 108/151/77 87/154/77
f 20/153/77 87/154/77 18/155/77
f 18/155/77 87/154/77 17/156/77
f 17/156/77 87/154/77 88/157/77
f 17/156/77 88/157/77 30/158/77
f 30/158/77 88/157/77 90/159/77
f 30/158/77 90/159/77 28/160/77
f 28/160/77 90/159/77 92/161/77
f 28/160/77 92/161/77 94/162/77
f 28/160/77 94/162/77 26/163/77
f 26/163/77 94/162/77 96/164/77
f 26/163/77 96/164/77 25/165/77
f 25/165/77 96/164/77 79/166/77
f 25/165/77 79/166/77 38/167/77
f 38/167/77 79/166/77 80/168/77
f 38/167/77 80/168/77 82/169/77
f 38/167/77 82/169/77 36/170/77
f 36/170/77 82/169/77 84/171/77
f 36/170/77 84/171/77 34/172/77
f 34/172/77 84/171/77 71/173/77
f 34/172/77 71/173/77 33/174/77
f 33/174/77 71/173/77 72/175/77
f 33/174/77 72/175/77 46/176/77
f 46/176/77 72/175/77 74/177/77
f 46/176/77 74/177/77 44/178/77
f 44/178/77 74/177/77 76/179/77
f 44/178/77 76/179/77 42/180/77
f 42/180/77 76/179/77 63/181/77
f 42/180/77 63/181/77 41/182/77
f 41/182/77 63/181/77 54/183/77
f 54/183/77 63/181/77 64/184/77
f 54/183/77 64/184/77 52/185/77
f 52/185/77 64/184/77 66/186/77
f 52/185/77 66/186/77 50/187/77
f 50/187/77 66/186/77 68/188/77
f 50/187/77 68/188/77 49/189/77
f 49/189/77 68/188/77 60/190/77
f 49/189/77 60/190/77 56/191/77
f 56/191/77 60/190/77 58/192/77
f 2/193/78 1/194/78 97/195/78
f 97/195/78 1/194/78 5/196/78
f 97/195/78 5/196/78 13/197/78
f 97/195/78 13/197/78 98/198/78
f 98/198/78 13/197/78 11/199/78
f 98/198/78 11/199/78 101/200/78
f 101/200/78 11/199/78 103/201/78
f 103/201/78 11/199/78 8/202/78
f 103/201/78 8/202/78 105/203/78
f 105/203/78 8/202/78 7/204/78
f 105/203/78 7/204/78 107/205/78
f 107/205/78 7/204/78 21/206/78
f 107/205/78 21/206/78 19/207/78
f 107/205/78 19/207/78 85/208/78
f 85/208/78 19/207/78 16/209/78
f 85/208/78 16/209/78 15/210/78
f 85/208/78 15/210/78 86/211/78
f 86/211/78 15/210/78 29/212/78
f 86/211/78 29/212/78 89/213/78
f 89/213/78 29/212/78 27/214/78
f 89/213/78 27/214/78 91/215/78
f 91/215/78 27/214/78 93/216/78
f 93/216/78 27/214/78 24/217/78
f 93/216/78 24/217/78 95/218/78
f 95/218/78 24/217/78 23/219/78
f 95/218/78 23/219/78 77/220/78
f 77/220/78 23/219/78 37/221/78
f 77/220/78 37/221/78 78/222/78
f 78/222/78 37/221/78 81/223/78
f 81/223/78 37/221/78 35/224/78
f 81/223/78 35/224/78 83/225/78
f 83/225/78 35/224/78 32/226/78
f 83/225/78 32/226/78 69/227/78
f 69/227/78 32/226/78 31/228/78
f 69/227/78 31/228/78 70/229/78
f 70/229/78 31/228/78 45/230/78
f 70/229/78 45/230/78 73/231/78
f 73/231/78 45/230/78 43/232/78
f 73/231/78 43/232/78 75/233/78
f 75/233/78 43/232/78 40/234/78
f 75/233/78 40/234/78 61/235/78
f 61/235/78 40/234/78 39/236/78
f 61/235/78 39/236/78 53/237/78
f 61/235/78 53/237/78 62/238/78
f 62/238/78 53/237/78 51/239/78
f 62/238/78 51/239/78 65/240/78
f 65/240/78 51/239/78 48/241/78
f 65/240/78 48/241/78 67/242/78
f 67/242/78 48/241/78 47/243/78
f 67/242/78 47/243/78 59/244/78
f 59/244/78 47/243/78 55/245/78
f 59/244/78 55/245/78 57/246/78
