# Blender v3.0.0 OBJ File: 'ABC.blend'
# www.blender.org
mtllib V.mtl
o V
v -0.198002 -0.265569 0.050000
v -0.030067 0.167869 0.050000
v -0.198002 -0.265569 -0.050000
v -0.030067 0.167869 -0.050000
v -0.135913 -0.265569 0.050000
v -0.135913 -0.265569 -0.050000
v -0.023267 0.049309 0.050000
v -0.023267 0.049309 -0.050000
v -0.000501 0.120268 0.050000
v -0.005732 0.102381 0.050000
v -0.000501 0.120268 -0.050000
v -0.005732 0.102381 -0.050000
v -0.011222 0.084576 0.050000
v -0.011222 0.084576 -0.050000
v -0.017125 0.066905 0.050000
v -0.017125 0.066905 -0.050000
v 0.022856 0.049309 0.050000
v 0.016513 0.066883 0.050000
v 0.022856 0.049309 -0.050000
v 0.016513 0.066883 -0.050000
v 0.010444 0.084547 0.050000
v 0.010444 0.084547 -0.050000
v 0.004833 0.102362 0.050000
v 0.004833 0.102362 -0.050000
v 0.139938 -0.265569 0.050000
v 0.139938 -0.265569 -0.050000
v 0.198478 -0.265569 0.050000
v 0.198478 -0.265569 -0.050000
v 0.028770 0.167869 0.050000
v 0.028770 0.167869 -0.050000
vt 0.000000 0.000000
vt 2.324169 0.000000
vt 0.000000 0.500000
vt 2.324169 0.500000
vt -0.000000 0.000000
vt 0.310443 0.000000
vt -0.000000 0.500000
vt 0.310443 0.500000
vt -0.000000 0.000000
vt 1.672105 0.000000
vt -0.000000 0.500000
vt 1.672105 0.500000
vt -0.372606 0.000000
vt -0.279454 0.000000
vt -0.372606 0.500000
vt -0.279454 0.500000
vt -0.186303 0.000000
vt -0.186303 0.500000
vt -0.093151 0.000000
vt -0.093151 0.500000
vt -0.373519 0.000000
vt -0.280139 0.000000
vt -0.373519 0.500000
vt -0.280139 0.500000
vt -0.186760 0.000000
vt -0.186760 0.500000
vt -0.093380 0.000000
vt -0.093380 0.500000
vt 0.000000 0.000000
vt 0.000000 0.500000
vt 0.000000 0.000000
vt 1.679704 0.000000
vt 0.000000 0.500000
vt 1.679704 0.500000
vt -0.000000 0.000000
vt 0.292704 0.000000
vt -0.000000 0.500000
vt 0.292704 0.500000
vt 0.000000 0.000000
vt 2.327388 0.000000
vt 0.000000 0.500000
vt 2.327388 0.500000
vt 0.000000 0.000000
vt 0.294182 0.000000
vt 0.000000 0.500000
vt 0.294182 0.500000
vt 0.142656 -1.083595
vt -0.003696 -0.845588
vt -0.151526 -1.083595
vt -0.029852 -0.756154
vt -0.057301 -0.667133
vt 0.991201 1.083595
vt 0.113090 -0.490796
vt 0.081376 -0.578666
vt 0.051029 -0.666985
vt 0.698497 1.083595
vt 0.022974 -0.756059
vt -0.086815 -0.578773
vt -0.117525 -0.490796
vt -0.991201 1.083595
vt -0.680758 1.083595
vt 0.151526 -1.083595
vt 0.003696 -0.845588
vt -0.142656 -1.083595
vt -0.022974 -0.756059
vt -0.051029 -0.666985
vt 0.991201 1.083595
vt 0.117525 -0.490796
vt 0.086815 -0.578773
vt 0.057301 -0.667133
vt 0.680758 1.083595
vt 0.029852 -0.756154
vt -0.081376 -0.578666
vt -0.113090 -0.490796
vt -0.991201 1.083595
vt -0.698497 1.083595
vn -0.9325 0.3613 0.0000
vn 0.0000 -1.0000 0.0000
vn 0.9420 -0.3356 0.0000
vn 0.9416 -0.3368 0.0000
vn 0.9418 -0.3363 -0.0000
vn 0.9605 -0.2784 -0.0000
vn 0.9584 -0.2854 -0.0000
vn 0.9520 -0.3061 0.0000
vn 0.9520 -0.3062 0.0000
vn 0.9456 -0.3253 0.0000
vn -0.9375 -0.3479 -0.0000
vn -0.9423 -0.3346 0.0000
vn -0.9390 -0.3440 0.0000
vn -0.9423 -0.3347 0.0000
vn -0.9498 -0.3127 0.0000
vn -0.9569 -0.2905 0.0000
vn -0.9569 -0.2904 -0.0000
vn -0.9591 -0.2830 -0.0000
vn -0.9591 -0.2831 0.0000
vn -0.9373 -0.3485 0.0000
vn 0.9312 0.3646 0.0000
vn 0.0000 1.0000 0.0000
vn -0.0000 0.0000 -1.0000
vn -0.0000 0.0000 1.0000
usemtl Aluminum_-_Anodized_Glossy_(Red).026
s 1
f 1/1/1 2/2/1 3/3/1
f 3/3/1 2/2/1 4/4/1
f 5/5/2 1/6/2 6/7/2
f 6/7/2 1/6/2 3/8/2
f 7/9/3 5/10/4 8/11/5
f 8/11/5 5/10/4 6/12/4
f 9/13/6 10/14/7 11/15/6
f 11/15/6 10/14/7 12/16/7
f 12/16/7 10/14/7 13/17/8
f 12/16/7 13/17/8 14/18/9
f 14/18/9 13/17/8 15/19/10
f 14/18/9 15/19/10 16/20/10
f 16/20/10 15/19/10 7/9/3
f 16/20/10 7/9/3 8/11/5
f 17/21/11 18/22/12 19/23/13
f 19/23/13 18/22/12 20/24/14
f 20/24/14 18/22/12 21/25/15
f 20/24/14 21/25/15 22/26/15
f 22/26/15 21/25/15 23/27/16
f 22/26/15 23/27/16 24/28/17
f 24/28/17 23/27/16 9/29/18
f 24/28/17 9/29/18 11/30/19
f 25/31/20 17/32/11 26/33/20
f 26/33/20 17/32/11 19/34/13
f 27/35/2 25/36/2 28/37/2
f 28/37/2 25/36/2 26/38/2
f 29/39/21 27/40/21 30/41/21
f 30/41/21 27/40/21 28/42/21
f 2/43/22 29/44/22 4/45/22
f 4/45/22 29/44/22 30/46/22
usemtl Bronze_-_Polished.026
f 30/47/23 11/48/23 4/49/23
f 4/49/23 11/48/23 12/50/23
f 4/49/23 12/50/23 14/51/23
f 28/52/23 19/53/23 30/47/23
f 30/47/23 19/53/23 20/54/23
f 30/47/23 20/54/23 22/55/23
f 28/52/23 26/56/23 19/53/23
f 22/55/23 24/57/23 30/47/23
f 30/47/23 24/57/23 11/48/23
f 14/51/23 16/58/23 4/49/23
f 4/49/23 16/58/23 8/59/23
f 4/49/23 8/59/23 3/60/23
f 3/60/23 8/59/23 6/61/23
f 2/62/24 9/63/24 29/64/24
f 29/64/24 9/63/24 23/65/24
f 29/64/24 23/65/24 21/66/24
f 1/67/24 7/68/24 2/62/24
f 2/62/24 7/68/24 15/69/24
f 2/62/24 15/69/24 13/70/24
f 1/67/24 5/71/24 7/68/24
f 13/70/24 10/72/24 2/62/24
f 2/62/24 10/72/24 9/63/24
f 21/66/24 18/73/24 29/64/24
f 29/64/24 18/73/24 17/74/24
f 29/64/24 17/74/24 27/75/24
f 27/75/24 17/74/24 25/76/24
