# Blender v3.0.0 OBJ File: 'ABC.blend'
# www.blender.org
mtllib X.mtl
o X
v -0.032527 0.001507 0.050000
v -0.200166 0.227391 0.050000
v -0.032527 0.001507 -0.050000
v -0.200166 0.227391 -0.050000
v -0.180357 -0.206047 0.050000
v -0.180357 -0.206047 -0.050000
v -0.112059 -0.206047 0.050000
v -0.112059 -0.206047 -0.050000
v -0.033414 -0.094878 0.050000
v -0.033414 -0.094878 -0.050000
v 0.001474 -0.041659 0.050000
v -0.006767 -0.055277 0.050000
v 0.001474 -0.041659 -0.050000
v -0.006767 -0.055277 -0.050000
v -0.015306 -0.068700 0.050000
v -0.015306 -0.068700 -0.050000
v -0.024252 -0.081859 0.050000
v -0.024252 -0.081859 -0.050000
v 0.035771 -0.091035 0.050000
v 0.026750 -0.079000 0.050000
v 0.035771 -0.091035 -0.050000
v 0.026750 -0.079000 -0.050000
v 0.017966 -0.066802 0.050000
v 0.017966 -0.066802 -0.050000
v 0.009592 -0.054319 0.050000
v 0.009592 -0.054319 -0.050000
v 0.122990 -0.206047 0.050000
v 0.122990 -0.206047 -0.050000
v 0.185375 -0.206047 0.050000
v 0.185375 -0.206047 -0.050000
v 0.033110 -0.001745 0.050000
v 0.033110 -0.001745 -0.050000
v 0.197201 0.227391 0.050000
v 0.197201 0.227391 -0.050000
v 0.126243 0.227391 0.050000
v 0.126243 0.227391 -0.050000
v 0.017144 0.072761 0.050000
v 0.017144 0.072761 -0.050000
v -0.001778 0.043786 0.050000
v 0.002838 0.051104 0.050000
v -0.001778 0.043786 -0.050000
v 0.002838 0.051104 -0.050000
v 0.007516 0.058383 0.050000
v 0.007516 0.058383 -0.050000
v 0.012297 0.065593 0.050000
v 0.012297 0.065593 -0.050000
v -0.022474 0.076309 0.050000
v -0.017148 0.068276 0.050000
v -0.022474 0.076309 -0.050000
v -0.017148 0.068276 -0.050000
v -0.011920 0.060180 0.050000
v -0.011920 0.060180 -0.050000
v -0.006817 0.052004 0.050000
v -0.006817 0.052004 -0.050000
v -0.131277 0.227391 0.050000
v -0.131277 0.227391 -0.050000
vt 0.000000 0.000000
vt 1.406473 0.000000
vt 0.000000 0.500000
vt 1.406473 0.500000
vt 0.000000 0.000000
vt 1.274090 0.000000
vt 0.000000 0.500000
vt 1.274090 0.500000
vt -0.000000 0.000000
vt 0.341488 0.000000
vt -0.000000 0.500000
vt 0.341488 0.500000
vt -0.000000 0.000000
vt 0.680873 0.000000
vt -0.000000 0.500000
vt 0.680873 0.500000
vt -0.318181 0.000000
vt -0.238636 0.000000
vt -0.318181 0.500000
vt -0.238636 0.500000
vt -0.159091 0.000000
vt -0.159091 0.500000
vt -0.079545 0.000000
vt -0.079545 0.500000
vt -0.300590 0.000000
vt -0.225443 0.000000
vt -0.300590 0.500000
vt -0.225443 0.500000
vt -0.150295 0.000000
vt -0.150295 0.500000
vt -0.075148 0.000000
vt -0.075148 0.500000
vt 0.000000 0.000000
vt 0.000000 0.500000
vt 0.000000 0.000000
vt 0.721717 0.000000
vt 0.000000 0.500000
vt 0.721717 0.500000
vt -0.000000 0.000000
vt 0.311921 0.000000
vt -0.000000 0.500000
vt 0.311921 0.500000
vt 0.000000 0.000000
vt 1.274005 0.000000
vt 0.000000 0.500000
vt 1.274005 0.500000
vt -0.000000 0.000000
vt 1.409163 0.000000
vt -0.000000 0.500000
vt 1.409163 0.500000
vt 0.000000 0.000000
vt 0.354792 0.000000
vt 0.000000 0.500000
vt 0.354792 0.500000
vt 0.000000 0.000000
vt 0.946217 0.000000
vt 0.000000 0.500000
vt 0.946217 0.500000
vt -0.173031 0.000000
vt -0.129773 0.000000
vt -0.173031 0.500000
vt -0.129773 0.500000
vt -0.086515 0.000000
vt -0.086515 0.500000
vt -0.043258 0.000000
vt -0.043258 0.500000
vt -0.192748 0.000000
vt -0.144561 0.000000
vt -0.192748 0.500000
vt -0.144561 0.500000
vt -0.096374 0.000000
vt -0.096374 0.500000
vt -0.048187 0.000000
vt -0.048187 0.500000
vt 0.000000 0.000000
vt 0.000000 0.500000
vt 0.000000 0.000000
vt 0.930913 0.000000
vt 0.000000 0.500000
vt 0.930913 0.500000
vt 0.000000 0.000000
vt 0.344444 0.000000
vt 0.000000 0.500000
vt 0.344444 0.500000
vt -0.648974 -1.083595
vt -0.104959 -0.328183
vt -0.993418 -1.083595
vt -0.155222 0.045827
vt -0.078326 -0.288018
vt -0.052186 -0.247537
vt -0.026670 -0.206657
vt -0.001478 -0.165570
vt 0.172961 0.062089
vt 0.021605 -0.202160
vt 0.044992 -0.238553
vt 0.068900 -0.274604
vt 0.093133 -0.310443
vt 0.993418 -1.083595
vt 0.638626 -1.083595
vt 0.934286 1.083595
vt 0.186266 0.508536
vt 0.141163 0.448364
vt 0.097244 0.387371
vt 0.622365 1.083595
vt 0.055373 0.324959
vt 0.014783 0.261659
vt -0.026420 0.329746
vt -0.069118 0.396862
vt -0.113847 0.462659
vt -0.159657 0.527753
vt -0.894372 1.083595
vt -0.552885 1.083595
vt 0.648974 -1.083595
vt 0.993418 -1.083595
vt 0.104959 -0.328183
vt 0.155222 0.045827
vt 0.078326 -0.288018
vt 0.052186 -0.247537
vt 0.026670 -0.206657
vt 0.001478 -0.165570
vt -0.172961 0.062089
vt -0.021605 -0.202160
vt -0.044992 -0.238553
vt -0.068900 -0.274604
vt -0.093133 -0.310443
vt -0.993418 -1.083595
vt -0.638626 -1.083595
vt 0.894372 1.083595
vt 0.159657 0.527753
vt 0.113847 0.462659
vt 0.069118 0.396862
vt 0.552885 1.083595
vt 0.026420 0.329746
vt -0.014783 0.261659
vt -0.055373 0.324959
vt -0.097244 0.387371
vt -0.141163 0.448364
vt -0.186266 0.508536
vt -0.934286 1.083595
vt -0.622365 1.083595
vn -0.8030 -0.5960 0.0000
vn -0.8145 0.5801 0.0000
vn 0.0000 -1.0000 0.0000
vn 0.8163 -0.5776 0.0000
vn 0.8164 -0.5775 0.0000
vn 0.8575 -0.5145 -0.0000
vn 0.8516 -0.5242 0.0000
vn 0.8345 -0.5510 0.0000
vn 0.8209 -0.5711 0.0000
vn -0.7971 -0.6039 0.0000
vn -0.8040 -0.5947 -0.0000
vn -0.7975 -0.6034 0.0000
vn -0.8208 -0.5712 0.0000
vn -0.8380 -0.5456 0.0000
vn -0.8381 -0.5456 -0.0000
vn -0.8437 -0.5368 -0.0000
vn -0.7968 -0.6043 0.0000
vn 0.8018 0.5976 0.0000
vn 0.8130 -0.5822 0.0000
vn 0.0000 1.0000 0.0000
vn -0.8171 0.5765 0.0000
vn -0.8465 0.5324 -0.0000
vn -0.8443 0.5359 -0.0000
vn -0.8466 0.5323 0.0000
vn -0.8374 0.5467 0.0000
vn -0.8375 0.5464 0.0000
vn -0.8301 0.5577 0.0000
vn -0.8301 0.5576 -0.0000
vn -0.8276 0.5613 -0.0000
vn 0.8323 0.5544 -0.0000
vn 0.8357 0.5492 0.0000
vn 0.8447 0.5352 0.0000
vn 0.8448 0.5351 -0.0000
vn 0.8512 0.5248 0.0000
vn 0.8511 0.5250 -0.0000
vn 0.8532 0.5216 -0.0000
vn 0.8115 0.5844 0.0000
vn 0.0000 0.0000 -1.0000
vn 0.0000 0.0000 1.0000
usemtl Aluminum_-_Anodized_Glossy_(Red).028
s 1
f 1/1/1 2/2/1 3/3/1
f 3/3/1 2/2/1 4/4/1
f 5/5/2 1/6/2 6/7/2
f 6/7/2 1/6/2 3/8/2
f 7/9/3 5/10/3 8/11/3
f 8/11/3 5/10/3 6/12/3
f 9/13/4 7/14/5 10/15/4
f 10/15/4 7/14/5 8/16/5
f 11/17/6 12/18/7 13/19/6
f 13/19/6 12/18/7 14/20/7
f 14/20/7 12/18/7 15/21/8
f 14/20/7 15/21/8 16/22/8
f 16/22/8 15/21/8 17/23/9
f 16/22/8 17/23/9 18/24/9
f 18/24/9 17/23/9 9/13/4
f 18/24/9 9/13/4 10/15/4
f 19/25/10 20/26/11 21/27/12
f 21/27/12 20/26/11 22/28/11
f 22/28/11 20/26/11 23/29/13
f 22/28/11 23/29/13 24/30/13
f 24/30/13 23/29/13 25/31/14
f 24/30/13 25/31/14 26/32/15
f 26/32/15 25/31/14 11/33/16
f 26/32/15 11/33/16 13/34/16
f 27/35/17 19/36/10 28/37/17
f 28/37/17 19/36/10 21/38/12
f 29/39/3 27/40/3 30/41/3
f 30/41/3 27/40/3 28/42/3
f 31/43/18 29/44/18 32/45/18
f 32/45/18 29/44/18 30/46/18
f 33/47/19 31/48/19 34/49/19
f 34/49/19 31/48/19 32/50/19
f 35/51/20 33/52/20 36/53/20
f 36/53/20 33/52/20 34/54/20
f 37/55/21 35/56/21 38/57/21
f 38/57/21 35/56/21 36/58/21
f 39/59/22 40/60/23 41/61/24
f 41/61/24 40/60/23 42/62/23
f 42/62/23 40/60/23 43/63/25
f 42/62/23 43/63/25 44/64/26
f 44/64/26 43/63/25 45/65/27
f 44/64/26 45/65/27 46/66/28
f 46/66/28 45/65/27 37/55/29
f 46/66/28 37/55/29 38/57/29
f 47/67/30 48/68/31 49/69/30
f 49/69/30 48/68/31 50/70/31
f 50/70/31 48/68/31 51/71/32
f 50/70/31 51/71/32 52/72/33
f 52/72/33 51/71/32 53/73/34
f 52/72/33 53/73/34 54/74/35
f 54/74/35 53/73/34 39/75/36
f 54/74/35 39/75/36 41/76/36
f 55/77/37 47/78/37 56/79/37
f 56/79/37 47/78/37 49/80/37
f 2/81/20 55/82/20 4/83/20
f 4/83/20 55/82/20 56/84/20
usemtl Bronze_-_Polished.028
f 56/85/38 49/86/38 4/87/38
f 4/87/38 49/86/38 3/88/38
f 3/88/38 49/86/38 50/89/38
f 3/88/38 50/89/38 52/90/38
f 52/90/38 54/91/38 3/88/38
f 3/88/38 54/91/38 41/92/38
f 3/88/38 41/92/38 32/93/38
f 32/93/38 41/92/38 42/94/38
f 32/93/38 42/94/38 44/95/38
f 44/95/38 46/96/38 32/93/38
f 32/93/38 46/96/38 38/97/38
f 32/93/38 38/97/38 34/98/38
f 34/98/38 38/97/38 36/99/38
f 30/100/38 21/101/38 32/93/38
f 32/93/38 21/101/38 22/102/38
f 32/93/38 22/102/38 24/103/38
f 30/100/38 28/104/38 21/101/38
f 24/103/38 26/105/38 32/93/38
f 32/93/38 26/105/38 13/106/38
f 32/93/38 13/106/38 3/88/38
f 3/88/38 13/106/38 14/107/38
f 3/88/38 14/107/38 16/108/38
f 16/108/38 18/109/38 3/88/38
f 3/88/38 18/109/38 10/110/38
f 3/88/38 10/110/38 6/111/38
f 6/111/38 10/110/38 8/112/38
f 55/113/39 2/114/39 47/115/39
f 47/115/39 2/114/39 1/116/39
f 47/115/39 1/116/39 48/117/39
f 48/117/39 1/116/39 51/118/39
f 51/118/39 1/116/39 53/119/39
f 53/119/39 1/116/39 39/120/39
f 39/120/39 1/116/39 31/121/39
f 39/120/39 31/121/39 40/122/39
f 40/122/39 31/121/39 43/123/39
f 43/123/39 31/121/39 45/124/39
f 45/124/39 31/121/39 37/125/39
f 37/125/39 31/121/39 33/126/39
f 37/125/39 33/126/39 35/127/39
f 5/128/39 9/129/39 1/116/39
f 1/116/39 9/129/39 17/130/39
f 1/116/39 17/130/39 15/131/39
f 5/128/39 7/132/39 9/129/39
f 15/131/39 12/133/39 1/116/39
f 1/116/39 12/133/39 11/134/39
f 1/116/39 11/134/39 31/121/39
f 31/121/39 11/134/39 25/135/39
f 31/121/39 25/135/39 23/136/39
f 23/136/39 20/137/39 31/121/39
f 31/121/39 20/137/39 19/138/39
f 31/121/39 19/138/39 29/139/39
f 29/139/39 19/138/39 27/140/39
