# Blender v3.0.0 OBJ File: 'ABC.blend'
# www.blender.org
mtllib Y.mtl
o Y
v -0.031913 0.083586 0.050000
v -0.031913 0.267191 0.050000
v -0.031913 0.083586 -0.050000
v -0.031913 0.267191 -0.050000
v -0.198961 -0.166247 0.050000
v -0.198961 -0.166247 -0.050000
v -0.129185 -0.166247 0.050000
v -0.129185 -0.166247 -0.050000
v -0.043739 -0.035565 0.050000
v -0.043739 -0.035565 -0.050000
v 0.000314 0.037759 0.050000
v -0.010287 0.019180 0.050000
v 0.000314 0.037759 -0.050000
v -0.010287 0.019180 -0.050000
v -0.021115 0.000738 0.050000
v -0.021115 0.000738 -0.050000
v -0.032316 -0.017480 0.050000
v -0.032316 -0.017480 -0.050000
v 0.047620 -0.038817 0.050000
v 0.035428 -0.019899 0.050000
v 0.047620 -0.038817 -0.050000
v 0.035428 -0.019899 -0.050000
v 0.023426 -0.000863 0.050000
v 0.023426 -0.000863 -0.050000
v 0.011761 0.018381 0.050000
v 0.011761 0.018381 -0.050000
v 0.131587 -0.166247 0.050000
v 0.131587 -0.166247 -0.050000
v 0.198407 -0.166247 0.050000
v 0.198407 -0.166247 -0.050000
v 0.025445 0.083586 0.050000
v 0.025445 0.083586 -0.050000
v 0.025445 0.267191 0.050000
v 0.025445 0.267191 -0.050000
vt 0.000000 0.000000
vt 0.918025 0.000000
vt 0.000000 0.500000
vt 0.918025 0.500000
vt 0.000000 0.000000
vt 1.502677 0.000000
vt 0.000000 0.500000
vt 1.502677 0.500000
vt -0.000000 0.000000
vt 0.348879 0.000000
vt -0.000000 0.500000
vt 0.348879 0.500000
vt -0.000000 0.000000
vt 0.780684 0.000000
vt -0.000000 0.500000
vt 0.780684 0.500000
vt -0.427699 0.000000
vt -0.320774 0.000000
vt -0.427699 0.500000
vt -0.320774 0.500000
vt -0.213850 0.000000
vt -0.213850 0.500000
vt -0.106925 0.000000
vt -0.106925 0.500000
vt -0.450048 0.000000
vt -0.337536 0.000000
vt -0.450048 0.500000
vt -0.337536 0.500000
vt -0.225024 0.000000
vt -0.225024 0.500000
vt -0.112512 0.000000
vt -0.112512 0.500000
vt 0.000000 0.000000
vt 0.000000 0.500000
vt 0.000000 0.000000
vt 0.763034 0.000000
vt 0.000000 0.500000
vt 0.763034 0.500000
vt -0.000000 0.000000
vt 0.334096 0.000000
vt -0.000000 0.500000
vt 0.334096 0.500000
vt 0.000000 0.000000
vt 1.519309 0.000000
vt 0.000000 0.500000
vt 1.519309 0.500000
vt -0.000000 0.000000
vt 0.918025 0.000000
vt -0.000000 0.500000
vt 0.918025 0.500000
vt 0.000000 0.000000
vt 0.286790 0.000000
vt 0.000000 0.500000
vt 0.286790 0.500000
vt -0.158178 -1.083595
vt 0.128612 -1.083595
vt -0.158178 -0.165570
vt 0.128612 -0.165570
vt 0.002957 0.063567
vt 0.060193 0.160456
vt 0.118515 0.256675
vt 0.178523 0.351855
vt 0.239485 0.446447
vt 0.993418 1.083595
vt 0.659322 1.083595
vt -0.050051 0.156459
vt -0.104189 0.248671
vt -0.160195 0.339761
vt -0.217310 0.430186
vt -0.993418 1.083595
vt -0.644539 1.083595
vt -0.128612 -1.083595
vt 0.158178 -1.083595
vt -0.128612 -0.165570
vt 0.158178 -0.165570
vt -0.002957 0.063567
vt 0.050051 0.156459
vt 0.104189 0.248671
vt 0.160195 0.339761
vt 0.217310 0.430186
vt 0.993418 1.083595
vt 0.644539 1.083595
vt -0.060193 0.160456
vt -0.118515 0.256675
vt -0.178523 0.351855
vt -0.239485 0.446447
vt -0.993418 1.083595
vt -0.659322 1.083595
vn -1.0000 0.0000 0.0000
vn -0.8313 0.5558 0.0000
vn 0.0000 -1.0000 0.0000
vn 0.8448 -0.5351 0.0000
vn 0.8370 -0.5472 0.0000
vn 0.8373 -0.5467 -0.0000
vn 0.8695 -0.4939 -0.0000
vn 0.8665 -0.4992 -0.0000
vn 0.8696 -0.4938 0.0000
vn 0.8572 -0.5151 0.0000
vn 0.8476 -0.5306 0.0000
vn -0.8353 -0.5498 0.0000
vn -0.8424 -0.5389 0.0000
vn -0.8400 -0.5426 -0.0000
vn -0.8506 -0.5259 0.0000
vn -0.8591 -0.5118 0.0000
vn -0.8590 -0.5119 -0.0000
vn -0.8619 -0.5070 -0.0000
vn -0.8350 -0.5502 0.0000
vn 0.8222 0.5692 0.0000
vn 1.0000 0.0000 0.0000
vn 0.0000 1.0000 0.0000
vn 0.0000 0.0000 -1.0000
vn 0.0000 0.0000 1.0000
usemtl Aluminum_-_Anodized_Glossy_(Red).029
s 1
f 1/1/1 2/2/1 3/3/1
f 3/3/1 2/2/1 4/4/1
f 5/5/2 1/6/2 6/7/2
f 6/7/2 1/6/2 3/8/2
f 7/9/3 5/10/3 8/11/3
f 8/11/3 5/10/3 6/12/3
f 9/13/4 7/14/5 10/15/6
f 10/15/6 7/14/5 8/16/5
f 11/17/7 12/18/8 13/19/9
f 13/19/9 12/18/8 14/20/8
f 14/20/8 12/18/8 15/21/10
f 14/20/8 15/21/10 16/22/10
f 16/22/10 15/21/10 17/23/11
f 16/22/10 17/23/11 18/24/11
f 18/24/11 17/23/11 9/13/4
f 18/24/11 9/13/4 10/15/6
f 19/25/12 20/26/13 21/27/14
f 21/27/14 20/26/13 22/28/13
f 22/28/13 20/26/13 23/29/15
f 22/28/13 23/29/15 24/30/15
f 24/30/15 23/29/15 25/31/16
f 24/30/15 25/31/16 26/32/17
f 26/32/17 25/31/16 11/33/18
f 26/32/17 11/33/18 13/34/18
f 27/35/19 19/36/12 28/37/19
f 28/37/19 19/36/12 21/38/14
f 29/39/3 27/40/3 30/41/3
f 30/41/3 27/40/3 28/42/3
f 31/43/20 29/44/20 32/45/20
f 32/45/20 29/44/20 30/46/20
f 33/47/21 31/48/21 34/49/21
f 34/49/21 31/48/21 32/50/21
f 2/51/22 33/52/22 4/53/22
f 4/53/22 33/52/22 34/54/22
usemtl Bronze_-_Polished.029
f 4/55/23 34/56/23 3/57/23
f 3/57/23 34/56/23 32/58/23
f 3/57/23 32/58/23 13/59/23
f 13/59/23 32/58/23 26/60/23
f 26/60/23 32/58/23 24/61/23
f 24/61/23 32/58/23 22/62/23
f 22/62/23 32/58/23 21/63/23
f 21/63/23 32/58/23 30/64/23
f 21/63/23 30/64/23 28/65/23
f 13/59/23 14/66/23 3/57/23
f 3/57/23 14/66/23 16/67/23
f 3/57/23 16/67/23 18/68/23
f 18/68/23 10/69/23 3/57/23
f 3/57/23 10/69/23 6/70/23
f 6/70/23 10/69/23 8/71/23
f 33/72/24 2/73/24 31/74/24
f 31/74/24 2/73/24 1/75/24
f 31/74/24 1/75/24 11/76/24
f 11/76/24 1/75/24 12/77/24
f 12/77/24 1/75/24 15/78/24
f 15/78/24 1/75/24 17/79/24
f 17/79/24 1/75/24 9/80/24
f 9/80/24 1/75/24 5/81/24
f 9/80/24 5/81/24 7/82/24
f 11/76/24 25/83/24 31/74/24
f 31/74/24 25/83/24 23/84/24
f 31/74/24 23/84/24 20/85/24
f 20/85/24 19/86/24 31/74/24
f 31/74/24 19/86/24 29/87/24
f 29/87/24 19/86/24 27/88/24
